%FSLAX43Y43*%
%MOMM*%
G71*
G01*
G75*
G04 Layer_Color=65535*
G04:AMPARAMS|DCode=10|XSize=1mm|YSize=0.8mm|CornerRadius=0.12mm|HoleSize=0mm|Usage=FLASHONLY|Rotation=270.000|XOffset=0mm|YOffset=0mm|HoleType=Round|Shape=RoundedRectangle|*
%AMROUNDEDRECTD10*
21,1,1.000,0.560,0,0,270.0*
21,1,0.760,0.800,0,0,270.0*
1,1,0.240,-0.280,-0.380*
1,1,0.240,-0.280,0.380*
1,1,0.240,0.280,0.380*
1,1,0.240,0.280,-0.380*
%
%ADD10ROUNDEDRECTD10*%
G04:AMPARAMS|DCode=11|XSize=1mm|YSize=0.8mm|CornerRadius=0.12mm|HoleSize=0mm|Usage=FLASHONLY|Rotation=0.000|XOffset=0mm|YOffset=0mm|HoleType=Round|Shape=RoundedRectangle|*
%AMROUNDEDRECTD11*
21,1,1.000,0.560,0,0,0.0*
21,1,0.760,0.800,0,0,0.0*
1,1,0.240,0.380,-0.280*
1,1,0.240,-0.380,-0.280*
1,1,0.240,-0.380,0.280*
1,1,0.240,0.380,0.280*
%
%ADD11ROUNDEDRECTD11*%
%ADD12R,1.100X0.550*%
%ADD13R,0.550X1.100*%
G04:AMPARAMS|DCode=14|XSize=0.8mm|YSize=3mm|CornerRadius=0.08mm|HoleSize=0mm|Usage=FLASHONLY|Rotation=270.000|XOffset=0mm|YOffset=0mm|HoleType=Round|Shape=RoundedRectangle|*
%AMROUNDEDRECTD14*
21,1,0.800,2.840,0,0,270.0*
21,1,0.640,3.000,0,0,270.0*
1,1,0.160,-1.420,-0.320*
1,1,0.160,-1.420,0.320*
1,1,0.160,1.420,0.320*
1,1,0.160,1.420,-0.320*
%
%ADD14ROUNDEDRECTD14*%
%ADD15R,1.100X0.850*%
G04:AMPARAMS|DCode=16|XSize=2.1mm|YSize=3mm|CornerRadius=0.21mm|HoleSize=0mm|Usage=FLASHONLY|Rotation=270.000|XOffset=0mm|YOffset=0mm|HoleType=Round|Shape=RoundedRectangle|*
%AMROUNDEDRECTD16*
21,1,2.100,2.580,0,0,270.0*
21,1,1.680,3.000,0,0,270.0*
1,1,0.420,-1.290,-0.840*
1,1,0.420,-1.290,0.840*
1,1,0.420,1.290,0.840*
1,1,0.420,1.290,-0.840*
%
%ADD16ROUNDEDRECTD16*%
%ADD17R,3.000X0.800*%
G04:AMPARAMS|DCode=18|XSize=1.8mm|YSize=0.8mm|CornerRadius=0.08mm|HoleSize=0mm|Usage=FLASHONLY|Rotation=180.000|XOffset=0mm|YOffset=0mm|HoleType=Round|Shape=RoundedRectangle|*
%AMROUNDEDRECTD18*
21,1,1.800,0.640,0,0,180.0*
21,1,1.640,0.800,0,0,180.0*
1,1,0.160,-0.820,0.320*
1,1,0.160,0.820,0.320*
1,1,0.160,0.820,-0.320*
1,1,0.160,-0.820,-0.320*
%
%ADD18ROUNDEDRECTD18*%
%ADD19R,4.000X0.500*%
%ADD20R,3.500X2.700*%
%ADD21R,5.000X2.700*%
%ADD22C,0.300*%
%ADD23C,0.200*%
%ADD24C,0.500*%
%ADD25C,5.000*%
%ADD26C,1.500*%
%ADD27C,1.500*%
%ADD28R,1.500X1.500*%
%ADD29C,2.000*%
%ADD30C,0.900*%
%ADD31C,1.400*%
%ADD32C,0.254*%
%ADD33C,0.100*%
%ADD34C,0.152*%
%ADD35C,0.051*%
%ADD36C,0.150*%
G36*
X119380Y117302D02*
X119000Y117098D01*
Y117537D01*
X119380Y117302D01*
D02*
G37*
D23*
X114900Y132100D02*
X116100D01*
X114900Y129850D02*
X116100D01*
X115900Y127600D02*
X117100D01*
X115900Y125350D02*
X117100D01*
X116400Y135400D02*
Y136600D01*
X118650Y135400D02*
Y136600D01*
X117900Y119325D02*
Y119775D01*
Y117225D02*
Y117675D01*
Y117225D02*
X118710D01*
X117900Y119775D02*
X119050D01*
X149600Y106700D02*
Y118300D01*
X142400Y107700D02*
Y118300D01*
X143400Y106700D02*
X149600D01*
X142400Y118300D02*
X149600D01*
X142400Y107700D02*
X143400Y106700D01*
X148700Y119500D02*
Y137270D01*
X146230Y119500D02*
Y137270D01*
X148700D01*
X146230Y119500D02*
X148700D01*
X146230Y136635D02*
X146865Y137270D01*
X146611D02*
X146865D01*
X146230Y136889D02*
X146611Y137270D01*
X146230Y136889D02*
Y137016D01*
X146484Y137270D01*
X136300Y140000D02*
X137500D01*
X136300Y142250D02*
X137500D01*
X127900Y139900D02*
X129100D01*
X127900Y142150D02*
X129100D01*
X138100Y122000D02*
Y122300D01*
Y137700D02*
Y138000D01*
X125900Y122000D02*
Y122300D01*
Y137700D02*
Y138000D01*
Y122000D02*
X138100D01*
X125900Y138000D02*
X138100D01*
Y128100D02*
Y129700D01*
X125900Y128100D02*
Y129700D01*
X100000Y127100D02*
Y134900D01*
Y127100D02*
Y134900D01*
X108300Y143000D02*
Y142000D01*
X108966D01*
X109966Y143000D02*
X109300D01*
Y142000D01*
X109966D01*
X109300Y142500D02*
X109633D01*
X110299Y143000D02*
Y142000D01*
X110799D01*
X110966Y142167D01*
Y142833D01*
X110799Y143000D01*
X110299D01*
X119100D02*
Y142000D01*
X119766D01*
X120766Y143000D02*
X120100D01*
Y142000D01*
X120766D01*
X120100Y142500D02*
X120433D01*
X121099Y143000D02*
Y142000D01*
X121599D01*
X121766Y142167D01*
Y142833D01*
X121599Y143000D01*
X121099D01*
X119100Y143500D02*
Y144500D01*
X119600D01*
X119766Y144333D01*
Y144000D01*
X119600Y143833D01*
X119100D01*
X120100Y143500D02*
Y144500D01*
X120600D01*
X120766Y144333D01*
Y144000D01*
X120600Y143833D01*
X120100D01*
X121766Y144333D02*
X121599Y144500D01*
X121266D01*
X121099Y144333D01*
Y144166D01*
X121266Y144000D01*
X121599D01*
X121766Y143833D01*
Y143667D01*
X121599Y143500D01*
X121266D01*
X121099Y143667D01*
X107700Y143500D02*
Y144500D01*
X108200D01*
X108366Y144333D01*
Y144000D01*
X108200Y143833D01*
X107700D01*
X108866Y143500D02*
X109200D01*
X109366Y143667D01*
Y144000D01*
X109200Y144166D01*
X108866D01*
X108700Y144000D01*
Y143667D01*
X108866Y143500D01*
X109699Y144166D02*
Y143667D01*
X109866Y143500D01*
X110033Y143667D01*
X110199Y143500D01*
X110366Y143667D01*
Y144166D01*
X111199Y143500D02*
X110866D01*
X110699Y143667D01*
Y144000D01*
X110866Y144166D01*
X111199D01*
X111365Y144000D01*
Y143833D01*
X110699D01*
X111699Y144166D02*
Y143500D01*
Y143833D01*
X111865Y144000D01*
X112032Y144166D01*
X112199D01*
X142600Y136900D02*
Y136233D01*
X142933Y135900D01*
X143266Y136233D01*
Y136900D01*
X143600Y135900D02*
X143933D01*
X143766D01*
Y136566D01*
X143600D01*
X144433Y135900D02*
Y136566D01*
X144933D01*
X145099Y136400D01*
Y135900D01*
X141500Y134100D02*
X142166D01*
X141833D01*
Y133100D01*
X142500Y133766D02*
X143166Y133100D01*
X142833Y133433D01*
X143166Y133766D01*
X142500Y133100D01*
X143999Y134100D02*
X143666D01*
X143499Y133933D01*
Y133267D01*
X143666Y133100D01*
X143999D01*
X144166Y133267D01*
Y133933D01*
X143999Y134100D01*
X144499Y133766D02*
Y133267D01*
X144666Y133100D01*
X145165D01*
Y133766D01*
X145665Y133933D02*
Y133766D01*
X145499D01*
X145832D01*
X145665D01*
Y133267D01*
X145832Y133100D01*
X142300Y130300D02*
Y131300D01*
X142800D01*
X142966Y131133D01*
Y130800D01*
X142800Y130633D01*
X142300D01*
X142633D02*
X142966Y130300D01*
X143300Y130966D02*
X143966Y130300D01*
X143633Y130633D01*
X143966Y130966D01*
X143300Y130300D01*
X144299Y131300D02*
X144633D01*
X144466D01*
Y130300D01*
X144299D01*
X144633D01*
X145132D02*
Y130966D01*
X145632D01*
X145799Y130800D01*
Y130300D01*
X143766Y128833D02*
X143600Y129000D01*
X143267D01*
X143100Y128833D01*
Y128167D01*
X143267Y128000D01*
X143600D01*
X143766Y128167D01*
Y128500D01*
X143433D01*
X144100Y128000D02*
Y128666D01*
X144600D01*
X144766Y128500D01*
Y128000D01*
X145766Y129000D02*
Y128000D01*
X145266D01*
X145099Y128167D01*
Y128500D01*
X145266Y128666D01*
X145766D01*
X143200Y125300D02*
Y126300D01*
X143700D01*
X143866Y126133D01*
Y125800D01*
X143700Y125633D01*
X143200D01*
X144200Y125300D02*
Y126300D01*
X144700D01*
X144866Y126133D01*
Y125800D01*
X144700Y125633D01*
X144200D01*
X145866Y126133D02*
X145699Y126300D01*
X145366D01*
X145199Y126133D01*
Y125966D01*
X145366Y125800D01*
X145699D01*
X145866Y125633D01*
Y125467D01*
X145699Y125300D01*
X145366D01*
X145199Y125467D01*
X141500Y122900D02*
Y123900D01*
X142000D01*
X142166Y123733D01*
Y123400D01*
X142000Y123233D01*
X141500D01*
X141833D02*
X142166Y122900D01*
X143000D02*
X142666D01*
X142500Y123067D01*
Y123400D01*
X142666Y123566D01*
X143000D01*
X143166Y123400D01*
Y123233D01*
X142500D01*
X143499Y122900D02*
X143999D01*
X144166Y123067D01*
X143999Y123233D01*
X143666D01*
X143499Y123400D01*
X143666Y123566D01*
X144166D01*
X144999Y122900D02*
X144666D01*
X144499Y123067D01*
Y123400D01*
X144666Y123566D01*
X144999D01*
X145165Y123400D01*
Y123233D01*
X144499D01*
X145665Y123733D02*
Y123566D01*
X145499D01*
X145832D01*
X145665D01*
Y123067D01*
X145832Y122900D01*
X139200Y121300D02*
Y120633D01*
X139533Y120300D01*
X139866Y120633D01*
Y121300D01*
X140200D02*
Y120300D01*
X140700D01*
X140866Y120467D01*
Y120633D01*
Y120800D01*
X140700Y120966D01*
X140200D01*
X141366D02*
X141699D01*
X141866Y120800D01*
Y120300D01*
X141366D01*
X141199Y120467D01*
X141366Y120633D01*
X141866D01*
X142865Y120966D02*
X142366D01*
X142199Y120800D01*
Y120467D01*
X142366Y120300D01*
X142865D01*
X143199D02*
Y121300D01*
Y120633D02*
X143699Y120966D01*
X143199Y120633D02*
X143699Y120300D01*
X144198Y120966D02*
Y120467D01*
X144365Y120300D01*
X144865D01*
Y120966D01*
X145198Y119967D02*
Y120966D01*
X145698D01*
X145865Y120800D01*
Y120467D01*
X145698Y120300D01*
X145198D01*
X138366Y115133D02*
X138200Y115300D01*
X137867D01*
X137700Y115133D01*
Y114467D01*
X137867Y114300D01*
X138200D01*
X138366Y114467D01*
Y114800D01*
X138033D01*
X138700Y114300D02*
Y114966D01*
X139200D01*
X139366Y114800D01*
Y114300D01*
X140366Y115300D02*
Y114300D01*
X139866D01*
X139699Y114467D01*
Y114800D01*
X139866Y114966D01*
X140366D01*
X137700Y112900D02*
Y113900D01*
X138200D01*
X138366Y113733D01*
Y113400D01*
X138200Y113233D01*
X137700D01*
X138033D02*
X138366Y112900D01*
X138700Y113566D02*
X139366Y112900D01*
X139033Y113233D01*
X139366Y113566D01*
X138700Y112900D01*
X139699Y113900D02*
X140033D01*
X139866D01*
Y112900D01*
X139699D01*
X140033D01*
X140532D02*
Y113566D01*
X141032D01*
X141199Y113400D01*
Y112900D01*
X137400Y112500D02*
X138066D01*
X137733D01*
Y111500D01*
X138400Y112166D02*
X139066Y111500D01*
X138733Y111833D01*
X139066Y112166D01*
X138400Y111500D01*
X139899Y112500D02*
X139566D01*
X139399Y112333D01*
Y111667D01*
X139566Y111500D01*
X139899D01*
X140066Y111667D01*
Y112333D01*
X139899Y112500D01*
X140399Y112166D02*
Y111667D01*
X140566Y111500D01*
X141065D01*
Y112166D01*
X141565Y112333D02*
Y112166D01*
X141399D01*
X141732D01*
X141565D01*
Y111667D01*
X141732Y111500D01*
X137800Y111000D02*
Y110333D01*
X138133Y110000D01*
X138466Y110333D01*
Y111000D01*
X138800Y110000D02*
X139133D01*
X138966D01*
Y110666D01*
X138800D01*
X139633Y110000D02*
Y110666D01*
X140133D01*
X140299Y110500D01*
Y110000D01*
X107500Y108200D02*
Y107100D01*
Y107650D01*
X107683Y107833D01*
X108050D01*
X108233Y107650D01*
Y107100D01*
X108783Y108016D02*
Y107833D01*
X108600D01*
X108966D01*
X108783D01*
Y107283D01*
X108966Y107100D01*
X109699Y108016D02*
Y107833D01*
X109516D01*
X109883D01*
X109699D01*
Y107283D01*
X109883Y107100D01*
X110432Y106733D02*
Y107833D01*
X110982D01*
X111165Y107650D01*
Y107283D01*
X110982Y107100D01*
X110432D01*
X111532Y107833D02*
X111715D01*
Y107650D01*
X111532D01*
Y107833D01*
Y107283D02*
X111715D01*
Y107100D01*
X111532D01*
Y107283D01*
X112448Y107100D02*
X113182Y107833D01*
X113548Y107100D02*
X114281Y107833D01*
X114831D02*
X115198D01*
X115381Y107650D01*
Y107100D01*
X114831D01*
X114648Y107283D01*
X114831Y107467D01*
X115381D01*
X116297Y107100D02*
X115931D01*
X115747Y107283D01*
Y107650D01*
X115931Y107833D01*
X116297D01*
X116480Y107650D01*
Y107467D01*
X115747D01*
X116847Y107833D02*
Y107100D01*
Y107467D01*
X117030Y107650D01*
X117214Y107833D01*
X117397D01*
X118130Y107100D02*
X118496D01*
X118680Y107283D01*
Y107650D01*
X118496Y107833D01*
X118130D01*
X117947Y107650D01*
Y107283D01*
X118130Y107100D01*
X119230D02*
Y108016D01*
Y107650D01*
X119046D01*
X119413D01*
X119230D01*
Y108016D01*
X119413Y108200D01*
X119963Y107833D02*
Y107283D01*
X120146Y107100D01*
X120696D01*
Y107833D01*
X121062Y107100D02*
Y107283D01*
X121246D01*
Y107100D01*
X121062D01*
X122712Y107833D02*
X122162D01*
X121979Y107650D01*
Y107283D01*
X122162Y107100D01*
X122712D01*
X123262D02*
X123628D01*
X123811Y107283D01*
Y107650D01*
X123628Y107833D01*
X123262D01*
X123078Y107650D01*
Y107283D01*
X123262Y107100D01*
X124178D02*
Y107833D01*
X124361D01*
X124545Y107650D01*
Y107100D01*
Y107650D01*
X124728Y107833D01*
X124911Y107650D01*
Y107100D01*
X125278D02*
X126011Y107833D01*
X126377Y107100D02*
X126927D01*
X127110Y107283D01*
X126927Y107467D01*
X126561D01*
X126377Y107650D01*
X126561Y107833D01*
X127110D01*
X127477Y107100D02*
Y108200D01*
Y107467D02*
X128027Y107833D01*
X127477Y107467D02*
X128027Y107100D01*
X128577Y107833D02*
Y107283D01*
X128760Y107100D01*
X129310D01*
Y107833D01*
X129676Y107100D02*
X130409Y107833D01*
X130776Y108200D02*
X131509D01*
Y108016D01*
X130776Y107283D01*
Y107100D01*
X132609D02*
X131875D01*
X132609Y107833D01*
Y108016D01*
X132425Y108200D01*
X132059D01*
X131875Y108016D01*
X114500Y109966D02*
Y109467D01*
X114667Y109300D01*
X115166D01*
Y109966D01*
X115500Y110300D02*
Y109300D01*
X116000D01*
X116166Y109467D01*
Y109633D01*
X116000Y109800D01*
X115500D01*
X116000D01*
X116166Y109966D01*
Y110133D01*
X116000Y110300D01*
X115500D01*
X116499Y109300D02*
X116833D01*
X116666D01*
Y110300D01*
X116499D01*
X117499Y109300D02*
X117832D01*
X117999Y109467D01*
Y109800D01*
X117832Y109966D01*
X117499D01*
X117332Y109800D01*
Y109467D01*
X117499Y109300D01*
X118332Y109966D02*
X118999Y109300D01*
X118665Y109633D01*
X118999Y109966D01*
X118332Y109300D01*
X120331D02*
Y110300D01*
X120998Y109300D01*
Y110300D01*
X121998D02*
X121331D01*
Y109300D01*
X121998D01*
X121331Y109800D02*
X121664D01*
X122831Y110300D02*
X122497D01*
X122331Y110133D01*
Y109467D01*
X122497Y109300D01*
X122831D01*
X122997Y109467D01*
Y110133D01*
X122831Y110300D01*
X124330Y109300D02*
Y109966D01*
X124663Y110300D01*
X124997Y109966D01*
Y109300D01*
Y109800D01*
X124330D01*
X125996Y110300D02*
Y109300D01*
X125496D01*
X125330Y109467D01*
Y109800D01*
X125496Y109966D01*
X125996D01*
X126496D02*
X126829D01*
X126996Y109800D01*
Y109300D01*
X126496D01*
X126330Y109467D01*
X126496Y109633D01*
X126996D01*
X127329Y108967D02*
Y109966D01*
X127829D01*
X127996Y109800D01*
Y109467D01*
X127829Y109300D01*
X127329D01*
X128495Y110133D02*
Y109966D01*
X128329D01*
X128662D01*
X128495D01*
Y109467D01*
X128662Y109300D01*
X129662D02*
X129329D01*
X129162Y109467D01*
Y109800D01*
X129329Y109966D01*
X129662D01*
X129828Y109800D01*
Y109633D01*
X129162D01*
X130162Y109966D02*
Y109300D01*
Y109633D01*
X130328Y109800D01*
X130495Y109966D01*
X130661D01*
X132161D02*
X132494Y109300D01*
X132827Y109966D01*
X133161Y110133D02*
X133327Y110300D01*
X133660D01*
X133827Y110133D01*
Y109467D01*
X133660Y109300D01*
X133327D01*
X133161Y109467D01*
Y110133D01*
X134160Y109300D02*
Y109467D01*
X134327D01*
Y109300D01*
X134160D01*
X134993D02*
X135327D01*
X135160D01*
Y110300D01*
X134993Y110133D01*
X108100Y105900D02*
X107767D01*
X107600Y105733D01*
Y105067D01*
X107767Y104900D01*
X108100D01*
X108266Y105067D01*
Y105733D01*
X108100Y105900D01*
X108600Y104567D02*
Y105566D01*
X109100D01*
X109266Y105400D01*
Y105067D01*
X109100Y104900D01*
X108600D01*
X110099D02*
X109766D01*
X109599Y105067D01*
Y105400D01*
X109766Y105566D01*
X110099D01*
X110266Y105400D01*
Y105233D01*
X109599D01*
X110599Y104900D02*
Y105566D01*
X111099D01*
X111265Y105400D01*
Y104900D01*
X112598D02*
X113098D01*
X113265Y105067D01*
X113098Y105233D01*
X112765D01*
X112598Y105400D01*
X112765Y105566D01*
X113265D01*
X113765Y104900D02*
X114098D01*
X114265Y105067D01*
Y105400D01*
X114098Y105566D01*
X113765D01*
X113598Y105400D01*
Y105067D01*
X113765Y104900D01*
X114598Y105566D02*
Y105067D01*
X114764Y104900D01*
X115264D01*
Y105566D01*
X115597D02*
Y104900D01*
Y105233D01*
X115764Y105400D01*
X115931Y105566D01*
X116097D01*
X117264D02*
X116764D01*
X116597Y105400D01*
Y105067D01*
X116764Y104900D01*
X117264D01*
X118097D02*
X117763D01*
X117597Y105067D01*
Y105400D01*
X117763Y105566D01*
X118097D01*
X118263Y105400D01*
Y105233D01*
X117597D01*
X119929Y104900D02*
X119596Y105233D01*
Y105566D01*
X119929Y105900D01*
X121096Y105733D02*
X120929Y105900D01*
X120596D01*
X120429Y105733D01*
Y105067D01*
X120596Y104900D01*
X120929D01*
X121096Y105067D01*
X122095Y105733D02*
X121929Y105900D01*
X121595D01*
X121429Y105733D01*
Y105067D01*
X121595Y104900D01*
X121929D01*
X122095Y105067D01*
X122429Y105400D02*
X123095D01*
X123428Y105900D02*
Y104900D01*
X123928D01*
X124095Y105067D01*
Y105233D01*
X123928Y105400D01*
X123428D01*
X123928D01*
X124095Y105566D01*
Y105733D01*
X123928Y105900D01*
X123428D01*
X124428D02*
Y105733D01*
X124761Y105400D01*
X125094Y105733D01*
Y105900D01*
X124761Y105400D02*
Y104900D01*
X125428Y105400D02*
X126094D01*
X127094Y105733D02*
X126927Y105900D01*
X126594D01*
X126427Y105733D01*
Y105566D01*
X126594Y105400D01*
X126927D01*
X127094Y105233D01*
Y105067D01*
X126927Y104900D01*
X126594D01*
X126427Y105067D01*
X127427Y104900D02*
Y105566D01*
X127760Y105900D01*
X128093Y105566D01*
Y104900D01*
Y105400D01*
X127427D01*
X128427D02*
X129093D01*
X130093Y104900D02*
X129426D01*
X130093Y105566D01*
Y105733D01*
X129926Y105900D01*
X129593D01*
X129426Y105733D01*
X130426Y104900D02*
Y105067D01*
X130593D01*
Y104900D01*
X130426D01*
X131925Y105900D02*
X131259D01*
Y105400D01*
X131592Y105566D01*
X131759D01*
X131925Y105400D01*
Y105067D01*
X131759Y104900D01*
X131426D01*
X131259Y105067D01*
X132259Y104900D02*
X132592Y105233D01*
Y105566D01*
X132259Y105900D01*
X107800Y103800D02*
Y103133D01*
X108133Y102800D01*
X108466Y103133D01*
Y103800D01*
X108800Y102800D02*
X109133D01*
X108966D01*
Y103466D01*
X108800D01*
X109633Y102800D02*
Y103466D01*
X110133D01*
X110299Y103300D01*
Y102800D01*
X111632D02*
X111965D01*
X111799D01*
Y103466D01*
X111632D01*
X112465Y102800D02*
X112965D01*
X113132Y102967D01*
X112965Y103133D01*
X112632D01*
X112465Y103300D01*
X112632Y103466D01*
X113132D01*
X114465Y103633D02*
X114631Y103800D01*
X114964D01*
X115131Y103633D01*
Y103466D01*
X114964Y103300D01*
X114798D01*
X114964D01*
X115131Y103133D01*
Y102967D01*
X114964Y102800D01*
X114631D01*
X114465Y102967D01*
X115464Y102800D02*
Y102967D01*
X115631D01*
Y102800D01*
X115464D01*
X116297Y103633D02*
X116464Y103800D01*
X116797D01*
X116964Y103633D01*
Y103466D01*
X116797Y103300D01*
X116630D01*
X116797D01*
X116964Y103133D01*
Y102967D01*
X116797Y102800D01*
X116464D01*
X116297Y102967D01*
X117297Y103800D02*
Y103133D01*
X117630Y102800D01*
X117963Y103133D01*
Y103800D01*
X119296Y102800D02*
Y103466D01*
X119796D01*
X119963Y103300D01*
Y102800D01*
X120463D02*
X120796D01*
X120962Y102967D01*
Y103300D01*
X120796Y103466D01*
X120463D01*
X120296Y103300D01*
Y102967D01*
X120463Y102800D01*
X121296D02*
Y103466D01*
X121462D01*
X121629Y103300D01*
Y102800D01*
Y103300D01*
X121795Y103466D01*
X121962Y103300D01*
Y102800D01*
X122295D02*
X122629D01*
X122462D01*
Y103466D01*
X122295D01*
X123128Y102800D02*
Y103466D01*
X123628D01*
X123795Y103300D01*
Y102800D01*
X124295Y103466D02*
X124628D01*
X124795Y103300D01*
Y102800D01*
X124295D01*
X124128Y102967D01*
X124295Y103133D01*
X124795D01*
X125128Y102800D02*
X125461D01*
X125294D01*
Y103800D01*
X125128D01*
X126127Y102633D02*
X126294Y102800D01*
Y102967D01*
X126127D01*
Y102800D01*
X126294D01*
X126127Y102633D01*
X125961Y102467D01*
X128627Y102800D02*
X127960D01*
X128627Y103466D01*
Y103633D01*
X128460Y103800D01*
X128127D01*
X127960Y103633D01*
X128960Y102800D02*
Y102967D01*
X129126D01*
Y102800D01*
X128960D01*
X129793Y103633D02*
X129960Y103800D01*
X130293D01*
X130459Y103633D01*
Y103466D01*
X130293Y103300D01*
X130459Y103133D01*
Y102967D01*
X130293Y102800D01*
X129960D01*
X129793Y102967D01*
Y103133D01*
X129960Y103300D01*
X129793Y103466D01*
Y103633D01*
X129960Y103300D02*
X130293D01*
X130793Y103800D02*
Y103133D01*
X131126Y102800D01*
X131459Y103133D01*
Y103800D01*
X132959Y103633D02*
Y103466D01*
X132792D01*
X133125D01*
X132959D01*
Y102967D01*
X133125Y102800D01*
X133792D02*
X134125D01*
X134291Y102967D01*
Y103300D01*
X134125Y103466D01*
X133792D01*
X133625Y103300D01*
Y102967D01*
X133792Y102800D01*
X136291Y103800D02*
X135958Y103633D01*
X135624Y103300D01*
Y102967D01*
X135791Y102800D01*
X136124D01*
X136291Y102967D01*
Y103133D01*
X136124Y103300D01*
X135624D01*
X136624Y102800D02*
Y102967D01*
X136791D01*
Y102800D01*
X136624D01*
X137457Y103633D02*
X137624Y103800D01*
X137957D01*
X138124Y103633D01*
Y102967D01*
X137957Y102800D01*
X137624D01*
X137457Y102967D01*
Y103633D01*
X138457Y103800D02*
Y103133D01*
X138790Y102800D01*
X139123Y103133D01*
Y103800D01*
X139456Y102800D02*
Y102967D01*
X139623D01*
Y102800D01*
X139456D01*
X115733Y100900D02*
X115400Y101233D01*
Y101566D01*
X115733Y101900D01*
X116900Y101566D02*
X116400D01*
X116233Y101400D01*
Y101067D01*
X116400Y100900D01*
X116900D01*
X117233D02*
X117566Y101233D01*
Y101566D01*
X117233Y101900D01*
X119065Y100900D02*
Y101566D01*
X119399Y101900D01*
X119732Y101566D01*
Y100900D01*
Y101400D01*
X119065D01*
X120565Y100900D02*
X120232D01*
X120065Y101067D01*
Y101400D01*
X120232Y101566D01*
X120565D01*
X120732Y101400D01*
Y101233D01*
X120065D01*
X121065Y101566D02*
Y100900D01*
Y101233D01*
X121231Y101400D01*
X121398Y101566D01*
X121565D01*
X122231Y100900D02*
X122564D01*
X122731Y101067D01*
Y101400D01*
X122564Y101566D01*
X122231D01*
X122065Y101400D01*
Y101067D01*
X122231Y100900D01*
X123231D02*
Y101733D01*
Y101400D01*
X123064D01*
X123397D01*
X123231D01*
Y101733D01*
X123397Y101900D01*
X123897Y101566D02*
Y101067D01*
X124064Y100900D01*
X124564D01*
Y101566D01*
X127563Y100900D02*
X126896D01*
X127563Y101566D01*
Y101733D01*
X127396Y101900D01*
X127063D01*
X126896Y101733D01*
X127896D02*
X128063Y101900D01*
X128396D01*
X128562Y101733D01*
Y101067D01*
X128396Y100900D01*
X128063D01*
X127896Y101067D01*
Y101733D01*
X128896Y100900D02*
X129229D01*
X129062D01*
Y101900D01*
X128896Y101733D01*
X130395Y100900D02*
X129729D01*
X130395Y101566D01*
Y101733D01*
X130229Y101900D01*
X129895D01*
X129729Y101733D01*
D24*
X128200Y136500D02*
G03*
X128200Y136500I-250J0D01*
G01*
D32*
X114184Y132500D02*
G03*
X114184Y132500I-14J0D01*
G01*
X115184Y128000D02*
G03*
X115184Y128000I-14J0D01*
G01*
X116014Y134670D02*
G03*
X116014Y134670I-14J0D01*
G01*
X138244Y139600D02*
G03*
X138244Y139600I-14J0D01*
G01*
X129844Y139500D02*
G03*
X129844Y139500I-14J0D01*
G01*
D33*
X111900Y117500D02*
G03*
X111900Y117500I-3400J0D01*
G01*
X108600Y141600D02*
X109200D01*
X108600Y140400D02*
X109200D01*
Y141600D01*
X110800Y140400D02*
Y141600D01*
X108200Y140400D02*
Y141600D01*
X108200D02*
X108850D01*
X108200Y140400D02*
X108850D01*
X115150Y142600D02*
X115800D01*
X115150Y141400D02*
X115800D01*
X113200D02*
X113850D01*
X113200Y142600D02*
X113850D01*
X115800Y141400D02*
Y142600D01*
X113200Y141400D02*
Y142600D01*
X119600Y141600D02*
X120200D01*
X119600Y140400D02*
X120200D01*
Y141600D01*
X121800Y140400D02*
Y141600D01*
X119200Y140400D02*
Y141600D01*
X119200D02*
X119850D01*
X119200Y140400D02*
X119850D01*
X122600Y135700D02*
Y136350D01*
X121400Y135700D02*
Y136350D01*
Y137650D02*
Y138300D01*
X122600Y137650D02*
Y138300D01*
X121400Y135700D02*
X122600D01*
X121400Y138300D02*
X122600D01*
X122300Y131400D02*
Y132600D01*
X119700Y131400D02*
Y132600D01*
X121650Y131400D02*
X122300D01*
X121650Y132600D02*
X122300D01*
X119700D02*
X120350D01*
X119700Y131400D02*
X120350D01*
X122300Y133400D02*
Y134600D01*
X119700Y133400D02*
Y134600D01*
X121650Y133400D02*
X122300D01*
X121650Y134600D02*
X122300D01*
X119700D02*
X120350D01*
X119700Y133400D02*
X120350D01*
X119400Y130800D02*
X120600D01*
X119400Y128200D02*
X120600D01*
Y130150D02*
Y130800D01*
X119400Y130150D02*
Y130800D01*
Y128200D02*
Y128850D01*
X120600Y128200D02*
Y128850D01*
X113900Y133200D02*
X115100D01*
X113900Y135800D02*
X115100D01*
X113900Y133200D02*
Y133850D01*
X115100Y133200D02*
Y133850D01*
Y135150D02*
Y135800D01*
X113900Y135150D02*
Y135800D01*
X136400Y115700D02*
X137600D01*
X136400Y118300D02*
X137600D01*
X136400Y115700D02*
Y116350D01*
X137600Y115700D02*
Y116350D01*
Y117650D02*
Y118300D01*
X136400Y117650D02*
Y118300D01*
X132400Y115700D02*
X133600D01*
X132400Y118300D02*
X133600D01*
X132400Y115700D02*
Y116350D01*
X133600Y115700D02*
Y116350D01*
Y117650D02*
Y118300D01*
X132400Y117650D02*
Y118300D01*
X134400Y115700D02*
X135600D01*
X134400Y118300D02*
X135600D01*
X134400Y115700D02*
Y116350D01*
X135600Y115700D02*
Y116350D01*
Y117650D02*
Y118300D01*
X134400Y117650D02*
Y118300D01*
X131300Y117400D02*
Y118600D01*
X128700Y117400D02*
Y118600D01*
X130650Y117400D02*
X131300D01*
X130650Y118600D02*
X131300D01*
X128700D02*
X129350D01*
X128700Y117400D02*
X129350D01*
X121400Y130800D02*
X122600D01*
X121400Y128200D02*
X122600D01*
Y130150D02*
Y130800D01*
X121400Y130150D02*
Y130800D01*
Y128200D02*
Y128850D01*
X122600Y128200D02*
Y128850D01*
X141900Y141450D02*
X143100D01*
X141900Y138850D02*
X143100D01*
Y140800D02*
Y141450D01*
X141900Y140800D02*
Y141450D01*
Y138850D02*
Y139500D01*
X143100Y138850D02*
Y139500D01*
X139900Y142300D02*
X141100D01*
X139900Y139700D02*
X141100D01*
Y141650D02*
Y142300D01*
X139900Y141650D02*
Y142300D01*
Y139700D02*
Y140350D01*
X141100Y139700D02*
Y140350D01*
X132900Y142300D02*
X134100D01*
X132900Y139700D02*
X134100D01*
Y141650D02*
Y142300D01*
X132900Y141650D02*
Y142300D01*
Y139700D02*
Y140350D01*
X134100Y139700D02*
Y140350D01*
X124400Y139700D02*
X125600D01*
X124400Y142300D02*
X125600D01*
X124400Y139700D02*
Y140350D01*
X125600Y139700D02*
Y140350D01*
Y141650D02*
Y142300D01*
X124400Y141650D02*
Y142300D01*
X113900Y139800D02*
X115100D01*
X113900Y137200D02*
X115100D01*
Y139150D02*
Y139800D01*
X113900Y139150D02*
Y139800D01*
Y137200D02*
Y137850D01*
X115100Y137200D02*
Y137850D01*
X121900Y117200D02*
X123100D01*
X121900Y119800D02*
X123100D01*
X121900Y117200D02*
Y117850D01*
X123100Y117200D02*
Y117850D01*
Y119150D02*
Y119800D01*
X121900Y119150D02*
Y119800D01*
X144600Y131600D02*
Y132800D01*
X142000Y131600D02*
Y132800D01*
X143950Y131600D02*
X144600D01*
X143950Y132800D02*
X144600D01*
X142000D02*
X142650D01*
X142000Y131600D02*
X142650D01*
X144600Y134400D02*
Y135600D01*
X142000Y134400D02*
Y135600D01*
X143950Y134400D02*
X144600D01*
X143950Y135600D02*
X144600D01*
X142000D02*
X142650D01*
X142000Y134400D02*
X142650D01*
D34*
X110100Y118300D02*
X111100D01*
X110600Y117800D02*
Y118800D01*
Y116100D02*
Y117100D01*
D35*
X111178Y109220D02*
X112041D01*
X107876D02*
X108739D01*
X111178Y109271D02*
X112041D01*
X107774D02*
X108943D01*
X111229Y109322D02*
X112092D01*
X107622D02*
X109095D01*
X111229Y109373D02*
X112092D01*
X107520D02*
X109197D01*
X111229Y109424D02*
X112143D01*
X107469D02*
X109349D01*
X111279Y109474D02*
X112143D01*
X107419D02*
X109400D01*
X111279Y109525D02*
X112143D01*
X107368D02*
X109501D01*
X111330Y109576D02*
X112194D01*
X107368D02*
X109603D01*
X111330Y109627D02*
X112194D01*
X107317D02*
X109705D01*
X111330Y109678D02*
X112194D01*
X107317D02*
X109755D01*
X111381Y109728D02*
X112245D01*
X107317D02*
X109857D01*
X111381Y109779D02*
X112245D01*
X107317D02*
X109908D01*
X111381Y109830D02*
X112245D01*
X107317D02*
X109959D01*
X111432Y109881D02*
X112295D01*
X108993D02*
X110060D01*
X107317D02*
X108638D01*
X111432Y109932D02*
X112295D01*
X109146D02*
X110111D01*
X107317D02*
X108587D01*
X111432Y109982D02*
X112295D01*
X109247D02*
X110162D01*
X107317D02*
X108587D01*
X111483Y110033D02*
X112346D01*
X109349D02*
X110213D01*
X107317D02*
X108536D01*
X111483Y110084D02*
X112346D01*
X109400D02*
X110263D01*
X107317D02*
X108536D01*
X111533Y110135D02*
X112346D01*
X109501D02*
X110314D01*
X107317D02*
X108587D01*
X111533Y110186D02*
X112397D01*
X109552D02*
X110365D01*
X107368D02*
X108587D01*
X111533Y110236D02*
X112397D01*
X109603D02*
X110416D01*
X107368D02*
X108587D01*
X111584Y110287D02*
X112397D01*
X109705D02*
X110467D01*
X107419D02*
X108638D01*
X111584Y110338D02*
X112448D01*
X109755D02*
X110568D01*
X107419D02*
X108689D01*
X111584Y110389D02*
X112448D01*
X109806D02*
X110619D01*
X107469D02*
X108739D01*
X111635Y110440D02*
X112448D01*
X109857D02*
X110670D01*
X107520D02*
X108790D01*
X111635Y110490D02*
X112499D01*
X109908D02*
X110670D01*
X107571D02*
X108841D01*
X111635Y110541D02*
X112499D01*
X110009D02*
X110721D01*
X107622D02*
X108892D01*
X111686Y110592D02*
X112549D01*
X110009D02*
X110771D01*
X107673D02*
X108993D01*
X111686Y110643D02*
X112549D01*
X110060D02*
X110822D01*
X107723D02*
X109095D01*
X111737Y110694D02*
X112549D01*
X110111D02*
X110873D01*
X107774D02*
X109247D01*
X111737Y110744D02*
X112600D01*
X110162D02*
X110924D01*
X107876D02*
X109400D01*
X111737Y110795D02*
X112600D01*
X110213D02*
X110975D01*
X107927D02*
X109755D01*
X108028Y110846D02*
X114277D01*
X108079Y110897D02*
X114429D01*
X108231Y110948D02*
X114531D01*
X108333Y110998D02*
X114632D01*
X108435Y111049D02*
X114683D01*
X108587Y111100D02*
X114683D01*
X108790Y111151D02*
X114734D01*
X109044Y111202D02*
X114734D01*
X109298Y111252D02*
X114785D01*
X114378Y111303D02*
X114785D01*
X110009D02*
X112803D01*
X111940Y111354D02*
X112803D01*
X110670D02*
X111432D01*
X111940Y111405D02*
X112803D01*
X110721D02*
X111483D01*
X111991Y111456D02*
X112854D01*
X110771D02*
X111533D01*
X111991Y111506D02*
X112854D01*
X110822D02*
X111533D01*
X111991Y111557D02*
X112854D01*
X110873D02*
X111584D01*
X112041Y111608D02*
X112905D01*
X110873D02*
X111635D01*
X112041Y111659D02*
X112905D01*
X110924D02*
X111686D01*
X112041Y111710D02*
X112905D01*
X110975D02*
X111737D01*
X112092Y111760D02*
X112905D01*
X111025D02*
X111787D01*
X112092Y111811D02*
X112956D01*
X111076D02*
X111838D01*
X112143Y111862D02*
X112956D01*
X111127D02*
X111838D01*
X112143Y111913D02*
X112956D01*
X111127D02*
X111889D01*
X112143Y111964D02*
X113007D01*
X111178D02*
X111940D01*
X112194Y112014D02*
X113007D01*
X111229D02*
X111991D01*
X112194Y112065D02*
X113007D01*
X111279D02*
X112041D01*
X112194Y112116D02*
X113057D01*
X111330D02*
X112092D01*
X112245Y112167D02*
X113057D01*
X111381D02*
X112143D01*
X112245Y112218D02*
X113057D01*
X111381D02*
X112143D01*
X112295Y112268D02*
X113108D01*
X111432D02*
X112194D01*
X112295Y112319D02*
X113108D01*
X111483D02*
X112245D01*
X111533Y112370D02*
X113108D01*
X111584Y112421D02*
X113108D01*
X111635Y112472D02*
X113159D01*
X111635Y112522D02*
X115547D01*
X111686Y112573D02*
X115597D01*
X111737Y112624D02*
X115597D01*
X111787Y112675D02*
X115648D01*
X111838Y112726D02*
X115648D01*
X111889Y112776D02*
X115699D01*
X111889Y112827D02*
X115750D01*
X111940Y112878D02*
X115750D01*
X111991Y112929D02*
X115801D01*
X112041Y112980D02*
X115801D01*
X112092Y113030D02*
X115851D01*
X112143Y113081D02*
X115902D01*
X112143Y113132D02*
X115902D01*
X112194Y113183D02*
X115953D01*
X112245Y113234D02*
X115953D01*
D36*
X119400Y135750D02*
Y136450D01*
X119750D01*
X119867Y136333D01*
Y136100D01*
X119750Y135983D01*
X119400D01*
X119633D02*
X119867Y135750D01*
X120100D02*
X120333D01*
X120216D01*
Y136450D01*
X120100Y136333D01*
X121149Y135750D02*
X120683D01*
X121149Y136217D01*
Y136333D01*
X121033Y136450D01*
X120800D01*
X120683Y136333D01*
X113800Y140500D02*
Y141200D01*
X114150D01*
X114267Y141083D01*
Y140850D01*
X114150Y140733D01*
X113800D01*
X114033D02*
X114267Y140500D01*
X114500D02*
X114733D01*
X114616D01*
Y141200D01*
X114500Y141083D01*
X115083Y140500D02*
X115316D01*
X115200D01*
Y141200D01*
X115083Y141083D01*
X120000Y139900D02*
Y139200D01*
X120350D01*
X120467Y139317D01*
Y139783D01*
X120350Y139900D01*
X120000D01*
X120700Y139783D02*
X120816Y139900D01*
X121050D01*
X121166Y139783D01*
Y139667D01*
X121050Y139550D01*
X120933D01*
X121050D01*
X121166Y139433D01*
Y139317D01*
X121050Y139200D01*
X120816D01*
X120700Y139317D01*
X109100Y140000D02*
Y139300D01*
X109450D01*
X109567Y139417D01*
Y139883D01*
X109450Y140000D01*
X109100D01*
X110266Y139300D02*
X109800D01*
X110266Y139767D01*
Y139883D01*
X110150Y140000D01*
X109916D01*
X109800Y139883D01*
X142467Y142383D02*
X142350Y142500D01*
X142117D01*
X142000Y142383D01*
Y141917D01*
X142117Y141800D01*
X142350D01*
X142467Y141917D01*
X143166Y141800D02*
X142700D01*
X143166Y142267D01*
Y142383D01*
X143050Y142500D01*
X142816D01*
X142700Y142383D01*
X140367Y143283D02*
X140250Y143400D01*
X140017D01*
X139900Y143283D01*
Y142817D01*
X140017Y142700D01*
X140250D01*
X140367Y142817D01*
X140600Y143283D02*
X140716Y143400D01*
X140950D01*
X141066Y143283D01*
Y143167D01*
X140950Y143050D01*
X140833D01*
X140950D01*
X141066Y142933D01*
Y142817D01*
X140950Y142700D01*
X140716D01*
X140600Y142817D01*
X131967Y142583D02*
X131850Y142700D01*
X131617D01*
X131500Y142583D01*
Y142117D01*
X131617Y142000D01*
X131850D01*
X131967Y142117D01*
X132550Y142000D02*
Y142700D01*
X132200Y142350D01*
X132666D01*
X112967Y135083D02*
X112850Y135200D01*
X112617D01*
X112500Y135083D01*
Y134617D01*
X112617Y134500D01*
X112850D01*
X112967Y134617D01*
X113666Y135200D02*
X113200D01*
Y134850D01*
X113433Y134967D01*
X113550D01*
X113666Y134850D01*
Y134617D01*
X113550Y134500D01*
X113316D01*
X113200Y134617D01*
X124267Y139383D02*
X124150Y139500D01*
X123917D01*
X123800Y139383D01*
Y138917D01*
X123917Y138800D01*
X124150D01*
X124267Y138917D01*
X124966Y139500D02*
X124733Y139383D01*
X124500Y139150D01*
Y138917D01*
X124616Y138800D01*
X124850D01*
X124966Y138917D01*
Y139033D01*
X124850Y139150D01*
X124500D01*
X113067Y138583D02*
X112950Y138700D01*
X112717D01*
X112600Y138583D01*
Y138117D01*
X112717Y138000D01*
X112950D01*
X113067Y138117D01*
X113300Y138700D02*
X113766D01*
Y138583D01*
X113300Y138117D01*
Y138000D01*
X119867Y127783D02*
X119750Y127900D01*
X119517D01*
X119400Y127783D01*
Y127317D01*
X119517Y127200D01*
X119750D01*
X119867Y127317D01*
X120100Y127783D02*
X120216Y127900D01*
X120450D01*
X120566Y127783D01*
Y127667D01*
X120450Y127550D01*
X120566Y127433D01*
Y127317D01*
X120450Y127200D01*
X120216D01*
X120100Y127317D01*
Y127433D01*
X120216Y127550D01*
X120100Y127667D01*
Y127783D01*
X120216Y127550D02*
X120450D01*
X118100Y121000D02*
Y120300D01*
X118450D01*
X118567Y120417D01*
Y120883D01*
X118450Y121000D01*
X118100D01*
X118800Y120300D02*
X119033D01*
X118916D01*
Y121000D01*
X118800Y120883D01*
X107767Y124300D02*
X107533D01*
X107650D01*
Y123717D01*
X107533Y123600D01*
X107417D01*
X107300Y123717D01*
X108000Y124183D02*
X108116Y124300D01*
X108350D01*
X108466Y124183D01*
Y124067D01*
X108350Y123950D01*
X108233D01*
X108350D01*
X108466Y123833D01*
Y123717D01*
X108350Y123600D01*
X108116D01*
X108000Y123717D01*
X122600Y133700D02*
Y134400D01*
X122950D01*
X123067Y134283D01*
Y134050D01*
X122950Y133933D01*
X122600D01*
X122833D02*
X123067Y133700D01*
X123300Y133817D02*
X123416Y133700D01*
X123650D01*
X123766Y133817D01*
Y134283D01*
X123650Y134400D01*
X123416D01*
X123300Y134283D01*
Y134167D01*
X123416Y134050D01*
X123766D01*
X122600Y131600D02*
Y132300D01*
X122950D01*
X123067Y132183D01*
Y131950D01*
X122950Y131833D01*
X122600D01*
X122833D02*
X123067Y131600D01*
X123300D02*
X123533D01*
X123416D01*
Y132300D01*
X123300Y132183D01*
X123883D02*
X124000Y132300D01*
X124233D01*
X124349Y132183D01*
Y131717D01*
X124233Y131600D01*
X124000D01*
X123883Y131717D01*
Y132183D01*
X121900Y120100D02*
Y120800D01*
X122250D01*
X122367Y120683D01*
Y120450D01*
X122250Y120333D01*
X121900D01*
X122133D02*
X122367Y120100D01*
X123066Y120800D02*
X122600D01*
Y120450D01*
X122833Y120567D01*
X122950D01*
X123066Y120450D01*
Y120217D01*
X122950Y120100D01*
X122716D01*
X122600Y120217D01*
X121600Y127200D02*
Y127900D01*
X121950D01*
X122067Y127783D01*
Y127550D01*
X121950Y127433D01*
X121600D01*
X121833D02*
X122067Y127200D01*
X122300D02*
X122533D01*
X122416D01*
Y127900D01*
X122300Y127783D01*
X129500Y116400D02*
Y117100D01*
X129850D01*
X129967Y116983D01*
Y116750D01*
X129850Y116633D01*
X129500D01*
X129733D02*
X129967Y116400D01*
X130666D02*
X130200D01*
X130666Y116867D01*
Y116983D01*
X130550Y117100D01*
X130316D01*
X130200Y116983D01*
X136400Y118600D02*
Y119300D01*
X136750D01*
X136867Y119183D01*
Y118950D01*
X136750Y118833D01*
X136400D01*
X136633D02*
X136867Y118600D01*
X137566Y119300D02*
X137333Y119183D01*
X137100Y118950D01*
Y118717D01*
X137216Y118600D01*
X137450D01*
X137566Y118717D01*
Y118833D01*
X137450Y118950D01*
X137100D01*
X134400Y118600D02*
Y119300D01*
X134750D01*
X134867Y119183D01*
Y118950D01*
X134750Y118833D01*
X134400D01*
X134633D02*
X134867Y118600D01*
X135100Y119300D02*
X135566D01*
Y119183D01*
X135100Y118717D01*
Y118600D01*
X132400D02*
Y119300D01*
X132750D01*
X132867Y119183D01*
Y118950D01*
X132750Y118833D01*
X132400D01*
X132633D02*
X132867Y118600D01*
X133100Y119183D02*
X133216Y119300D01*
X133450D01*
X133566Y119183D01*
Y119067D01*
X133450Y118950D01*
X133566Y118833D01*
Y118717D01*
X133450Y118600D01*
X133216D01*
X133100Y118717D01*
Y118833D01*
X133216Y118950D01*
X133100Y119067D01*
Y119183D01*
X133216Y118950D02*
X133450D01*
X131512Y138997D02*
Y138414D01*
X131629Y138297D01*
X131862D01*
X131979Y138414D01*
Y138997D01*
X132212Y138297D02*
X132445D01*
X132329D01*
Y138997D01*
X132212Y138880D01*
X136400Y143300D02*
Y142717D01*
X136517Y142600D01*
X136750D01*
X136867Y142717D01*
Y143300D01*
X137566Y142600D02*
X137100D01*
X137566Y143067D01*
Y143183D01*
X137450Y143300D01*
X137216D01*
X137100Y143183D01*
X114900Y129500D02*
Y128917D01*
X115017Y128800D01*
X115250D01*
X115367Y128917D01*
Y129500D01*
X115600Y129383D02*
X115716Y129500D01*
X115950D01*
X116066Y129383D01*
Y129267D01*
X115950Y129150D01*
X115833D01*
X115950D01*
X116066Y129033D01*
Y128917D01*
X115950Y128800D01*
X115716D01*
X115600Y128917D01*
X127900Y143200D02*
Y142617D01*
X128017Y142500D01*
X128250D01*
X128367Y142617D01*
Y143200D01*
X128950Y142500D02*
Y143200D01*
X128600Y142850D01*
X129066D01*
X116907Y138936D02*
Y138353D01*
X117023Y138236D01*
X117257D01*
X117373Y138353D01*
Y138936D01*
X118073D02*
X117607D01*
Y138586D01*
X117840Y138703D01*
X117957D01*
X118073Y138586D01*
Y138353D01*
X117957Y138236D01*
X117723D01*
X117607Y138353D01*
X115900Y125000D02*
Y124417D01*
X116017Y124300D01*
X116250D01*
X116367Y124417D01*
Y125000D01*
X117066D02*
X116833Y124883D01*
X116600Y124650D01*
Y124417D01*
X116716Y124300D01*
X116950D01*
X117066Y124417D01*
Y124533D01*
X116950Y124650D01*
X116600D01*
X113667Y119983D02*
X113550Y120100D01*
X113317D01*
X113200Y119983D01*
Y119517D01*
X113317Y119400D01*
X113550D01*
X113667Y119517D01*
X113900Y119400D02*
X114133D01*
X114016D01*
Y120100D01*
X113900Y119983D01*
X147267Y138300D02*
X147033D01*
X147150D01*
Y137717D01*
X147033Y137600D01*
X146917D01*
X146800Y137717D01*
X147500Y137600D02*
X147733D01*
X147616D01*
Y138300D01*
X147500Y138183D01*
X142967Y106300D02*
X142733D01*
X142850D01*
Y105717D01*
X142733Y105600D01*
X142617D01*
X142500Y105717D01*
X143666Y105600D02*
X143200D01*
X143666Y106067D01*
Y106183D01*
X143550Y106300D01*
X143316D01*
X143200Y106183D01*
X140600Y131700D02*
Y132400D01*
X140950D01*
X141067Y132283D01*
Y132050D01*
X140950Y131933D01*
X140600D01*
X140833D02*
X141067Y131700D01*
X141300Y132283D02*
X141416Y132400D01*
X141650D01*
X141766Y132283D01*
Y132167D01*
X141650Y132050D01*
X141533D01*
X141650D01*
X141766Y131933D01*
Y131817D01*
X141650Y131700D01*
X141416D01*
X141300Y131817D01*
X140600Y134700D02*
Y135400D01*
X140950D01*
X141067Y135283D01*
Y135050D01*
X140950Y134933D01*
X140600D01*
X140833D02*
X141067Y134700D01*
X141650D02*
Y135400D01*
X141300Y135050D01*
X141766D01*
X124500Y136800D02*
X124733D01*
X124617D01*
Y137500D01*
X124500Y137383D01*
M02*
