%FSLAX43Y43*%
%MOMM*%
G71*
G01*
G75*
G04 Layer_Physical_Order=1*
G04 Layer_Color=255*
G04:AMPARAMS|DCode=10|XSize=1mm|YSize=0.8mm|CornerRadius=0.12mm|HoleSize=0mm|Usage=FLASHONLY|Rotation=270.000|XOffset=0mm|YOffset=0mm|HoleType=Round|Shape=RoundedRectangle|*
%AMROUNDEDRECTD10*
21,1,1.000,0.560,0,0,270.0*
21,1,0.760,0.800,0,0,270.0*
1,1,0.240,-0.280,-0.380*
1,1,0.240,-0.280,0.380*
1,1,0.240,0.280,0.380*
1,1,0.240,0.280,-0.380*
%
%ADD10ROUNDEDRECTD10*%
G04:AMPARAMS|DCode=11|XSize=1mm|YSize=0.8mm|CornerRadius=0.12mm|HoleSize=0mm|Usage=FLASHONLY|Rotation=0.000|XOffset=0mm|YOffset=0mm|HoleType=Round|Shape=RoundedRectangle|*
%AMROUNDEDRECTD11*
21,1,1.000,0.560,0,0,0.0*
21,1,0.760,0.800,0,0,0.0*
1,1,0.240,0.380,-0.280*
1,1,0.240,-0.380,-0.280*
1,1,0.240,-0.380,0.280*
1,1,0.240,0.380,0.280*
%
%ADD11ROUNDEDRECTD11*%
%ADD12R,1.100X0.550*%
%ADD13R,0.550X1.100*%
G04:AMPARAMS|DCode=14|XSize=0.8mm|YSize=3mm|CornerRadius=0.08mm|HoleSize=0mm|Usage=FLASHONLY|Rotation=270.000|XOffset=0mm|YOffset=0mm|HoleType=Round|Shape=RoundedRectangle|*
%AMROUNDEDRECTD14*
21,1,0.800,2.840,0,0,270.0*
21,1,0.640,3.000,0,0,270.0*
1,1,0.160,-1.420,-0.320*
1,1,0.160,-1.420,0.320*
1,1,0.160,1.420,0.320*
1,1,0.160,1.420,-0.320*
%
%ADD14ROUNDEDRECTD14*%
%ADD15R,1.100X0.850*%
G04:AMPARAMS|DCode=16|XSize=2.1mm|YSize=3mm|CornerRadius=0.21mm|HoleSize=0mm|Usage=FLASHONLY|Rotation=270.000|XOffset=0mm|YOffset=0mm|HoleType=Round|Shape=RoundedRectangle|*
%AMROUNDEDRECTD16*
21,1,2.100,2.580,0,0,270.0*
21,1,1.680,3.000,0,0,270.0*
1,1,0.420,-1.290,-0.840*
1,1,0.420,-1.290,0.840*
1,1,0.420,1.290,0.840*
1,1,0.420,1.290,-0.840*
%
%ADD16ROUNDEDRECTD16*%
%ADD17R,3.000X0.800*%
G04:AMPARAMS|DCode=18|XSize=1.8mm|YSize=0.8mm|CornerRadius=0.08mm|HoleSize=0mm|Usage=FLASHONLY|Rotation=180.000|XOffset=0mm|YOffset=0mm|HoleType=Round|Shape=RoundedRectangle|*
%AMROUNDEDRECTD18*
21,1,1.800,0.640,0,0,180.0*
21,1,1.640,0.800,0,0,180.0*
1,1,0.160,-0.820,0.320*
1,1,0.160,0.820,0.320*
1,1,0.160,0.820,-0.320*
1,1,0.160,-0.820,-0.320*
%
%ADD18ROUNDEDRECTD18*%
%ADD19R,4.000X0.500*%
%ADD20R,3.500X2.700*%
%ADD21R,5.000X2.700*%
%ADD22C,0.300*%
%ADD23C,0.200*%
%ADD24C,0.500*%
%ADD25C,5.000*%
%ADD26C,1.500*%
%ADD27C,1.500*%
%ADD28R,1.500X1.500*%
%ADD29C,2.000*%
%ADD30C,0.900*%
G36*
X128517Y142222D02*
X128434Y142166D01*
X128184Y141916D01*
X128117Y141817D01*
X128094Y141700D01*
X128094Y141700D01*
Y138400D01*
X128094Y138400D01*
X128117Y138283D01*
X128184Y138184D01*
X136184Y130184D01*
X136283Y130117D01*
X136400Y130094D01*
X136400Y130094D01*
X136895D01*
Y130080D01*
X136916Y129971D01*
X136978Y129878D01*
X137071Y129816D01*
X137180Y129795D01*
X138820D01*
X138929Y129816D01*
X139022Y129878D01*
X139084Y129971D01*
X139105Y130080D01*
Y130720D01*
X139084Y130829D01*
X139022Y130922D01*
Y130978D01*
X139084Y131071D01*
X139105Y131180D01*
Y131820D01*
X139084Y131929D01*
X139022Y132022D01*
Y132078D01*
X139084Y132171D01*
X139093Y132216D01*
X139214Y132253D01*
X140384Y131084D01*
X140384D01*
X140384Y131084D01*
X140384D01*
X140384Y131084D01*
Y131084D01*
X140384Y131084D01*
Y131084D01*
X140483Y131017D01*
X140600Y130994D01*
X142900D01*
X142900Y130994D01*
X143017Y131017D01*
X143116Y131084D01*
X143516Y131484D01*
X143516Y131484D01*
X143538Y131516D01*
X143662Y131541D01*
X143695Y131519D01*
X143820Y131494D01*
X144380D01*
X144505Y131519D01*
X144611Y131589D01*
X144681Y131695D01*
X144706Y131820D01*
Y131994D01*
X144913D01*
X146204Y130704D01*
X146204Y130704D01*
X146204Y130704D01*
X146204Y130704D01*
Y130704D01*
X146303Y130637D01*
X146420Y130614D01*
X146598D01*
X146670Y130441D01*
X146822Y130242D01*
X147021Y130090D01*
X147252Y129994D01*
X147500Y129962D01*
X147748Y129994D01*
X147979Y130090D01*
X148178Y130242D01*
X148274Y130368D01*
X148394Y130327D01*
Y128973D01*
X148274Y128932D01*
X148178Y129058D01*
X147979Y129210D01*
X147748Y129306D01*
X147627Y129321D01*
Y128380D01*
Y127439D01*
X147748Y127454D01*
X147979Y127550D01*
X148178Y127702D01*
X148274Y127828D01*
X148394Y127787D01*
Y126433D01*
X148274Y126392D01*
X148178Y126518D01*
X147979Y126670D01*
X147748Y126766D01*
X147500Y126798D01*
X147252Y126766D01*
X147021Y126670D01*
X146822Y126518D01*
X146670Y126319D01*
X146598Y126146D01*
X145687D01*
X142616Y129216D01*
X142517Y129283D01*
X142400Y129306D01*
X142400Y129306D01*
X136227D01*
X134757Y130775D01*
X134757Y130775D01*
X134757D01*
Y130775D01*
Y130775D01*
X134757D01*
X134757Y130775D01*
X130516Y135016D01*
X130417Y135083D01*
X130300Y135106D01*
X130300Y135106D01*
X127105D01*
Y135120D01*
X127084Y135229D01*
X127022Y135322D01*
Y135378D01*
X127084Y135471D01*
X127105Y135580D01*
Y136220D01*
X127084Y136329D01*
X127022Y136422D01*
Y136478D01*
X127084Y136571D01*
X127105Y136680D01*
Y137320D01*
X127084Y137429D01*
X127022Y137522D01*
X126929Y137584D01*
X126820Y137605D01*
X125180D01*
X125071Y137584D01*
X124978Y137522D01*
X124916Y137429D01*
X124895Y137320D01*
Y136680D01*
X124916Y136571D01*
X124978Y136478D01*
Y136422D01*
X124916Y136329D01*
X124895Y136220D01*
Y135580D01*
X124916Y135471D01*
X124978Y135378D01*
Y135322D01*
X124916Y135229D01*
X124895Y135120D01*
Y135106D01*
X124627D01*
X123316Y136416D01*
X123217Y136483D01*
X123100Y136506D01*
X123100Y136506D01*
X122701D01*
X122681Y136605D01*
X122611Y136711D01*
X122505Y136781D01*
X122380Y136806D01*
X121620D01*
X121495Y136781D01*
X121389Y136711D01*
X121319Y136605D01*
X121294Y136480D01*
Y135920D01*
X121319Y135795D01*
X121389Y135689D01*
X121495Y135619D01*
X121620Y135594D01*
X122380D01*
X122505Y135619D01*
X122611Y135689D01*
X122681Y135795D01*
X122701Y135894D01*
X122973D01*
X124284Y134584D01*
X124284Y134584D01*
X124383Y134517D01*
Y134517D01*
X124383Y134517D01*
X124383D01*
Y134517D01*
X124383Y134517D01*
X124383Y134517D01*
X124500Y134494D01*
X124500Y134494D01*
X124895D01*
Y134480D01*
X124916Y134371D01*
X124978Y134278D01*
Y134222D01*
X124916Y134129D01*
X124895Y134020D01*
Y133380D01*
X124916Y133271D01*
X124978Y133178D01*
Y133122D01*
X124916Y133029D01*
X124907Y132984D01*
X124786Y132947D01*
X123516Y134216D01*
X123417Y134283D01*
X123300Y134306D01*
X123300Y134306D01*
X122406D01*
Y134380D01*
X122381Y134505D01*
X122311Y134611D01*
X122205Y134681D01*
X122080Y134706D01*
X121520D01*
X121404Y134683D01*
X121306Y134764D01*
Y135100D01*
X121306Y135100D01*
X121283Y135217D01*
X121283D01*
X121283Y135217D01*
X121283Y135217D01*
Y135217D01*
X121283D01*
X121216Y135316D01*
X121216Y135316D01*
X120566Y135966D01*
X120467Y136033D01*
X120350Y136056D01*
X120350Y136056D01*
X116749D01*
X116252Y136552D01*
X116267Y136600D01*
X117025D01*
Y138100D01*
X116907D01*
Y138400D01*
X116901Y138427D01*
X116906Y138450D01*
X116901Y138473D01*
X116907Y138500D01*
Y141802D01*
X117448Y142343D01*
X124276D01*
X124336Y142231D01*
X124319Y142205D01*
X124294Y142080D01*
Y141520D01*
X124319Y141395D01*
X124389Y141289D01*
X124495Y141219D01*
X124620Y141194D01*
X125380D01*
X125505Y141219D01*
X125611Y141289D01*
X125681Y141395D01*
X125706Y141520D01*
Y141895D01*
X125824Y141944D01*
X126034Y141734D01*
X126133Y141667D01*
X126250Y141644D01*
X126250Y141644D01*
X126400D01*
Y141475D01*
X127900D01*
Y142343D01*
X128480D01*
X128517Y142222D01*
D02*
G37*
G36*
X116193Y135602D02*
Y135400D01*
X116075D01*
Y133900D01*
X117017D01*
X117057Y133780D01*
X117036Y133764D01*
X116932Y133628D01*
X116867Y133470D01*
X116861Y133427D01*
X117500D01*
Y133300D01*
X117627D01*
Y132661D01*
X117663Y132666D01*
X117706Y132580D01*
X117718Y132550D01*
X117592Y132425D01*
X116100D01*
Y132256D01*
X114900D01*
Y132425D01*
X113400D01*
Y132256D01*
X111150D01*
X111033Y132233D01*
X110993Y132206D01*
X110934Y132166D01*
X110934Y132166D01*
X110873Y132106D01*
X109800D01*
Y132150D01*
Y132243D01*
X110100D01*
X110237Y132270D01*
X110352Y132348D01*
X110352Y132348D01*
X110352Y132348D01*
X113677Y135573D01*
X113794Y135523D01*
Y135020D01*
X113819Y134895D01*
X113889Y134789D01*
X113995Y134719D01*
X114120Y134694D01*
X114880D01*
X115005Y134719D01*
X115111Y134789D01*
X115181Y134895D01*
X115206Y135020D01*
Y135580D01*
X115181Y135705D01*
X115111Y135811D01*
X115005Y135881D01*
X114880Y135906D01*
X114917Y135943D01*
X115852D01*
X116193Y135602D01*
D02*
G37*
G36*
X149800Y100200D02*
X149800Y100200D01*
X100200D01*
X100200Y124640D01*
X100322Y124677D01*
X100384Y124584D01*
X101284Y123684D01*
X101284Y123684D01*
X101383Y123617D01*
Y123617D01*
X101383Y123617D01*
X101383D01*
Y123617D01*
X101383Y123617D01*
X101383Y123617D01*
X101500Y123594D01*
X101500Y123594D01*
X118473D01*
X122059Y120008D01*
X122022Y119887D01*
X121995Y119881D01*
X121889Y119811D01*
X121819Y119705D01*
X121794Y119580D01*
Y119020D01*
X121819Y118895D01*
X121889Y118789D01*
X121995Y118719D01*
X122120Y118694D01*
X122880D01*
X123005Y118719D01*
X123111Y118789D01*
X123181Y118895D01*
X123206Y119020D01*
Y119580D01*
X123181Y119705D01*
X123111Y119811D01*
X123005Y119881D01*
X122880Y119906D01*
X122806D01*
Y120000D01*
X122783Y120117D01*
X122716Y120216D01*
X118816Y124116D01*
X118717Y124183D01*
X118600Y124206D01*
X118600Y124206D01*
X101627D01*
X101050Y124783D01*
X101099Y124900D01*
X106200D01*
Y124900D01*
X106200D01*
X106200Y124900D01*
X106300D01*
Y124900D01*
X110200D01*
Y128000D01*
X106300D01*
X106300Y128000D01*
X106200D01*
Y128000D01*
X100906D01*
Y134000D01*
X106200D01*
Y134000D01*
X106200D01*
X106200Y134000D01*
X106300D01*
Y134000D01*
X110200D01*
Y137094D01*
X111000D01*
X111000Y137094D01*
X111117Y137117D01*
X111216Y137184D01*
X112227Y138194D01*
X113736D01*
X113817Y138096D01*
X113794Y137980D01*
Y137420D01*
X113819Y137295D01*
X113889Y137189D01*
X113995Y137119D01*
X114120Y137094D01*
X114880D01*
X115005Y137119D01*
X115111Y137189D01*
X115181Y137295D01*
X115206Y137420D01*
Y137980D01*
X115181Y138105D01*
X115202Y138143D01*
X116075D01*
Y138100D01*
X116075D01*
Y136718D01*
X116000Y136657D01*
X113800D01*
X113663Y136630D01*
X113548Y136552D01*
X109952Y132957D01*
X109800D01*
Y133050D01*
X105982D01*
X105898Y133145D01*
X105906Y133200D01*
X105883Y133370D01*
X105818Y133528D01*
X105714Y133664D01*
X105578Y133768D01*
X105420Y133833D01*
X105250Y133856D01*
X105080Y133833D01*
X104922Y133768D01*
X104786Y133664D01*
X104682Y133528D01*
X104617Y133370D01*
X104594Y133200D01*
X104617Y133030D01*
X104682Y132872D01*
X104786Y132736D01*
X104922Y132632D01*
X105080Y132567D01*
X105250Y132544D01*
X105305Y132552D01*
X105400Y132468D01*
Y132150D01*
Y131350D01*
Y130550D01*
Y129750D01*
Y129532D01*
X105305Y129448D01*
X105250Y129456D01*
X105080Y129433D01*
X104922Y129368D01*
X104786Y129264D01*
X104682Y129128D01*
X104617Y128970D01*
X104594Y128800D01*
X104617Y128630D01*
X104682Y128472D01*
X104786Y128336D01*
X104922Y128232D01*
X105080Y128167D01*
X105250Y128144D01*
X105420Y128167D01*
X105578Y128232D01*
X105714Y128336D01*
X105818Y128472D01*
X105883Y128630D01*
X105906Y128800D01*
X105898Y128855D01*
X105982Y128950D01*
X107473D01*
Y129400D01*
X107600D01*
Y129527D01*
X109800D01*
Y129750D01*
Y130550D01*
Y130694D01*
X110873D01*
X111734Y129834D01*
X111734Y129834D01*
X111793Y129794D01*
X111833Y129767D01*
X111950Y129744D01*
X113400D01*
Y129575D01*
X114900D01*
Y129744D01*
X116100D01*
Y129575D01*
X117276D01*
X117325Y129458D01*
X116034Y128166D01*
X115967Y128067D01*
X115944Y127950D01*
Y127925D01*
X115900D01*
Y127925D01*
X114400D01*
Y127065D01*
X114400Y127065D01*
X114400D01*
X114400Y126975D01*
X114400Y126975D01*
X114400D01*
Y126627D01*
X115150D01*
Y126373D01*
X114400D01*
Y126115D01*
X114400Y126115D01*
X114400D01*
X114400Y126025D01*
X114400Y126025D01*
Y126025D01*
X114400D01*
Y125075D01*
X114400Y125075D01*
Y125075D01*
Y125075D01*
X114400D01*
X114400Y125075D01*
X114400Y125075D01*
X115900D01*
Y125244D01*
X116150D01*
X116150Y125244D01*
X116267Y125267D01*
X116366Y125334D01*
X116466Y125434D01*
X116533Y125533D01*
X116556Y125650D01*
X116556Y125650D01*
Y127823D01*
X119176Y130444D01*
X119294Y130395D01*
Y130427D01*
X120706D01*
Y130580D01*
X120681Y130705D01*
X120665Y130729D01*
X120700Y130794D01*
X120700D01*
Y130794D01*
X120817Y130817D01*
X120916Y130884D01*
X121216Y131184D01*
X121216Y131184D01*
X121283Y131283D01*
X121385Y131325D01*
X121395Y131319D01*
X121520Y131294D01*
X122080D01*
X122205Y131319D01*
X122311Y131389D01*
X122381Y131495D01*
X122406Y131620D01*
Y131694D01*
X123973D01*
X124384Y131284D01*
X124384Y131284D01*
X124443Y131244D01*
X124483Y131217D01*
X124600Y131194D01*
X124895D01*
Y131180D01*
X124916Y131071D01*
X124978Y130978D01*
Y130922D01*
X124916Y130829D01*
X124895Y130720D01*
Y130706D01*
X124700D01*
X124700Y130706D01*
X124583Y130683D01*
X124484Y130616D01*
X124484Y130616D01*
X123409Y129542D01*
X123343Y129442D01*
X123319Y129325D01*
X123319Y129325D01*
Y128852D01*
X122816Y128349D01*
X122704Y128408D01*
X122706Y128420D01*
Y128980D01*
X122681Y129105D01*
X122611Y129211D01*
X122505Y129281D01*
X122380Y129306D01*
X121620D01*
X121495Y129281D01*
X121389Y129211D01*
X121319Y129105D01*
X121294Y128980D01*
Y128420D01*
X121319Y128295D01*
X121389Y128189D01*
X121495Y128119D01*
X121620Y128094D01*
X121694D01*
Y127756D01*
X120306D01*
Y128094D01*
X120380D01*
X120505Y128119D01*
X120611Y128189D01*
X120681Y128295D01*
X120706Y128420D01*
Y128980D01*
X120681Y129105D01*
X120611Y129211D01*
X120505Y129281D01*
X120380Y129306D01*
X119620D01*
X119495Y129281D01*
X119389Y129211D01*
X119319Y129105D01*
X119294Y128980D01*
Y128420D01*
X119319Y128295D01*
X119389Y128189D01*
X119495Y128119D01*
X119620Y128094D01*
X119694D01*
Y127756D01*
X118600D01*
Y127925D01*
X117100D01*
Y126975D01*
X118600D01*
Y127144D01*
X122350D01*
X122350Y127144D01*
X122467Y127167D01*
X122566Y127234D01*
X123841Y128509D01*
X123908Y128608D01*
X123931Y128725D01*
Y129199D01*
X124786Y130053D01*
X124907Y130016D01*
X124916Y129971D01*
X124978Y129878D01*
X125071Y129816D01*
X125180Y129795D01*
X126820D01*
X126929Y129816D01*
X127022Y129878D01*
X127084Y129971D01*
X127105Y130080D01*
Y130720D01*
X127084Y130829D01*
X127022Y130922D01*
Y130978D01*
X127084Y131071D01*
X127105Y131180D01*
Y131820D01*
X127084Y131929D01*
X127022Y132022D01*
Y132078D01*
X127084Y132171D01*
X127105Y132280D01*
Y132920D01*
X127084Y133029D01*
X127022Y133122D01*
Y133178D01*
X127084Y133271D01*
X127105Y133380D01*
Y134020D01*
X127084Y134129D01*
X127022Y134222D01*
Y134278D01*
X127084Y134371D01*
X127105Y134480D01*
Y134494D01*
X130173D01*
X134325Y130343D01*
X134325Y130343D01*
X135754Y128913D01*
Y128786D01*
X134673Y127706D01*
X127105D01*
Y127720D01*
X127084Y127829D01*
X127022Y127922D01*
X126929Y127984D01*
X126820Y128005D01*
X125180D01*
X125071Y127984D01*
X124978Y127922D01*
X124916Y127829D01*
X124895Y127720D01*
Y127080D01*
X124916Y126971D01*
X124978Y126878D01*
Y126822D01*
X124916Y126729D01*
X124895Y126620D01*
Y125980D01*
X124916Y125871D01*
X124978Y125778D01*
Y125722D01*
X124916Y125629D01*
X124895Y125520D01*
Y125327D01*
X127105D01*
Y125520D01*
X127084Y125629D01*
X127022Y125722D01*
Y125778D01*
X127084Y125871D01*
X127105Y125980D01*
Y125994D01*
X128373D01*
X128894Y125473D01*
Y118701D01*
X128795Y118681D01*
X128689Y118611D01*
X128619Y118505D01*
X128594Y118380D01*
Y117620D01*
X128619Y117495D01*
X128689Y117389D01*
X128795Y117319D01*
X128920Y117294D01*
X129480D01*
X129605Y117319D01*
X129711Y117389D01*
X129781Y117495D01*
X129806Y117620D01*
Y118380D01*
X129781Y118505D01*
X129711Y118611D01*
X129605Y118681D01*
X129506Y118701D01*
Y125600D01*
X129483Y125717D01*
X129416Y125816D01*
X129416Y125816D01*
X129416D01*
X129416Y125816D01*
Y125816D01*
X128716Y126516D01*
X128617Y126583D01*
X128500Y126606D01*
X128500Y126606D01*
X127105D01*
Y126620D01*
X127084Y126729D01*
X127022Y126822D01*
Y126878D01*
X127084Y126971D01*
X127105Y127080D01*
Y127094D01*
X130494D01*
Y118701D01*
X130395Y118681D01*
X130289Y118611D01*
X130219Y118505D01*
X130194Y118380D01*
Y117620D01*
X130219Y117495D01*
X130289Y117389D01*
X130395Y117319D01*
X130520Y117294D01*
X131080D01*
X131205Y117319D01*
X131311Y117389D01*
X131381Y117495D01*
X131406Y117620D01*
Y118380D01*
X131381Y118505D01*
X131311Y118611D01*
X131205Y118681D01*
X131106Y118701D01*
Y127094D01*
X134800D01*
X134800Y127094D01*
X134917Y127117D01*
X135016Y127184D01*
X136127Y128294D01*
X142073D01*
X146646Y123721D01*
X146574Y123548D01*
X146542Y123300D01*
X146574Y123052D01*
X146670Y122821D01*
X146822Y122622D01*
X147021Y122470D01*
X147252Y122374D01*
X147500Y122342D01*
X147748Y122374D01*
X147979Y122470D01*
X148178Y122622D01*
X148274Y122748D01*
X148394Y122707D01*
Y122087D01*
X147921Y121614D01*
X147748Y121686D01*
X147500Y121718D01*
X147252Y121686D01*
X147021Y121590D01*
X146822Y121438D01*
X146670Y121239D01*
X146574Y121008D01*
X146574Y121006D01*
X145200D01*
X145083Y120983D01*
X144984Y120916D01*
X144984Y120916D01*
X138073Y114006D01*
X135584D01*
X135528Y114120D01*
X135568Y114172D01*
X135633Y114330D01*
X135639Y114373D01*
X134361D01*
X134367Y114330D01*
X134432Y114172D01*
X134472Y114120D01*
X134416Y114006D01*
X121327D01*
X118106Y117227D01*
Y117775D01*
X118550D01*
Y119025D01*
X117050D01*
Y118556D01*
X115605D01*
Y118570D01*
X115584Y118679D01*
X115522Y118772D01*
X115429Y118834D01*
X115320Y118855D01*
X112480D01*
X112371Y118834D01*
X112278Y118772D01*
X112216Y118679D01*
X112195Y118570D01*
Y117930D01*
X112216Y117821D01*
X112278Y117728D01*
X112371Y117666D01*
X112480Y117645D01*
X115320D01*
X115429Y117666D01*
X115522Y117728D01*
X115584Y117821D01*
X115605Y117930D01*
Y117944D01*
X117050D01*
Y117775D01*
X117494D01*
Y117100D01*
X117494Y117100D01*
X117517Y116983D01*
X117584Y116884D01*
X120984Y113484D01*
X120984Y113484D01*
X121083Y113417D01*
Y113417D01*
X121083Y113417D01*
X121083D01*
Y113417D01*
X121083Y113417D01*
X121083Y113417D01*
X121200Y113394D01*
X121200Y113394D01*
X138200D01*
X138200Y113394D01*
X138317Y113417D01*
X138416Y113484D01*
X145327Y120394D01*
X146623D01*
X146670Y120281D01*
X146822Y120082D01*
X147021Y119930D01*
X147252Y119834D01*
X147500Y119802D01*
X147748Y119834D01*
X147979Y119930D01*
X148178Y120082D01*
X148330Y120281D01*
X148426Y120512D01*
X148458Y120760D01*
X148426Y121008D01*
X148354Y121181D01*
X148726Y121553D01*
X148843Y121505D01*
Y120248D01*
X147852Y119257D01*
X144800D01*
X144663Y119230D01*
X144548Y119152D01*
X140648Y115252D01*
X140570Y115137D01*
X140543Y115000D01*
Y111900D01*
X140543Y111900D01*
X140543D01*
X140570Y111763D01*
X140648Y111648D01*
X141923Y110373D01*
X142038Y110295D01*
X142175Y110268D01*
X142500D01*
Y110025D01*
X145900D01*
Y111225D01*
X145849D01*
X145812Y111347D01*
X145822Y111353D01*
X145884Y111446D01*
X145905Y111555D01*
Y111594D01*
X147423D01*
X147432Y111572D01*
X147536Y111436D01*
X147672Y111332D01*
X147830Y111267D01*
X148000Y111244D01*
X148170Y111267D01*
X148328Y111332D01*
X148464Y111436D01*
X148568Y111572D01*
X148633Y111730D01*
X148656Y111900D01*
X148633Y112070D01*
X148568Y112228D01*
X148464Y112364D01*
X148328Y112468D01*
X148170Y112533D01*
X148328Y112632D01*
X148328D01*
X148464Y112736D01*
X148568Y112872D01*
X148633Y113030D01*
X148656Y113200D01*
X148633Y113370D01*
X148568Y113528D01*
X148464Y113664D01*
X148328Y113768D01*
X148170Y113833D01*
X148000Y113856D01*
X147830Y113833D01*
X147672Y113768D01*
X147536Y113664D01*
X147432Y113528D01*
X147423Y113506D01*
X145893D01*
X145884Y113554D01*
X145822Y113647D01*
X145763Y113687D01*
Y113813D01*
X145822Y113853D01*
X145884Y113946D01*
X145905Y114055D01*
Y114248D01*
X142495D01*
Y114055D01*
X142516Y113946D01*
X142578Y113853D01*
X142637Y113813D01*
Y113687D01*
X142578Y113647D01*
X142516Y113554D01*
X142495Y113445D01*
Y112805D01*
X142516Y112696D01*
X142578Y112603D01*
X142637Y112563D01*
Y112437D01*
X142578Y112397D01*
X142516Y112304D01*
X142495Y112195D01*
Y111555D01*
X142516Y111446D01*
X142578Y111353D01*
X142588Y111347D01*
X142551Y111225D01*
X142500D01*
Y110982D01*
X142323D01*
X141257Y112048D01*
Y113777D01*
X141371Y113833D01*
X141372Y113832D01*
X141530Y113767D01*
X141573Y113761D01*
Y114400D01*
Y115039D01*
X141620Y115045D01*
X141564Y115159D01*
X144948Y118543D01*
X148000D01*
X148137Y118570D01*
X148252Y118648D01*
X149452Y119848D01*
X149530Y119963D01*
X149557Y120100D01*
Y134300D01*
X149530Y134437D01*
X149452Y134552D01*
X148450Y135555D01*
Y136950D01*
X147055D01*
X144597Y139408D01*
X144683Y139501D01*
X144908Y139309D01*
X145270Y139087D01*
X145663Y138924D01*
X146076Y138825D01*
X146373Y138802D01*
Y141373D01*
X143802D01*
X143825Y141076D01*
X143924Y140663D01*
X144087Y140270D01*
X144309Y139908D01*
X144501Y139683D01*
X144408Y139597D01*
X143602Y140402D01*
X143487Y140480D01*
X143350Y140507D01*
X143274D01*
X143193Y140605D01*
X143206Y140670D01*
Y140823D01*
X141794D01*
Y140670D01*
X141807Y140605D01*
X141726Y140507D01*
X141201D01*
X141181Y140605D01*
X141111Y140711D01*
X141005Y140781D01*
X140880Y140806D01*
X140120D01*
X139995Y140781D01*
X139889Y140711D01*
X139827Y140618D01*
X139706Y140655D01*
Y141345D01*
X139827Y141382D01*
X139889Y141289D01*
X139995Y141219D01*
X140120Y141194D01*
X140373D01*
Y141800D01*
Y142406D01*
X140120D01*
X139995Y142381D01*
X139889Y142311D01*
X139819Y142205D01*
X139794Y142080D01*
Y142069D01*
X139672Y142033D01*
X139656Y142057D01*
X139616Y142116D01*
X139616Y142116D01*
X139466Y142266D01*
X139367Y142333D01*
X139250Y142356D01*
X139250Y142356D01*
X139000D01*
Y142525D01*
X137500D01*
Y141665D01*
X137500Y141665D01*
X137500D01*
X137500Y141583D01*
X137380Y141543D01*
X137364Y141564D01*
X137228Y141668D01*
X137070Y141733D01*
X137027Y141739D01*
Y141100D01*
Y140461D01*
X137070Y140467D01*
X137228Y140532D01*
X137364Y140636D01*
X137380Y140657D01*
X137500Y140617D01*
Y139675D01*
X137500Y139675D01*
Y139675D01*
Y139675D01*
X137500D01*
X137500Y139675D01*
X137500Y139675D01*
X139000D01*
Y139793D01*
X139820D01*
X139889Y139689D01*
X139995Y139619D01*
X140120Y139594D01*
X140880D01*
X141005Y139619D01*
X141111Y139689D01*
X141180Y139793D01*
X141726D01*
X141807Y139695D01*
X141794Y139630D01*
Y139070D01*
X141819Y138945D01*
X141889Y138839D01*
X141995Y138769D01*
X142120Y138744D01*
X142194D01*
Y136406D01*
X140900D01*
X140783Y136383D01*
X140684Y136316D01*
X139473Y135106D01*
X139105D01*
Y135120D01*
X139084Y135229D01*
X139022Y135322D01*
Y135378D01*
X139084Y135471D01*
X139105Y135580D01*
Y136220D01*
X139084Y136329D01*
X139022Y136422D01*
Y136478D01*
X139084Y136571D01*
X139105Y136680D01*
Y136873D01*
X136895D01*
Y136680D01*
X136916Y136571D01*
X136978Y136478D01*
Y136422D01*
X136916Y136329D01*
X136902Y136257D01*
X134248D01*
X132457Y138048D01*
Y139843D01*
X132809D01*
X132819Y139795D01*
X132889Y139689D01*
X132995Y139619D01*
X133120Y139594D01*
X133880D01*
X134005Y139619D01*
X134111Y139689D01*
X134180Y139793D01*
X134800D01*
Y139675D01*
X136300D01*
Y140617D01*
X136420Y140657D01*
X136436Y140636D01*
X136572Y140532D01*
X136730Y140467D01*
X136773Y140461D01*
Y140973D01*
X136261D01*
X136267Y140930D01*
X136332Y140772D01*
X136337Y140766D01*
X136320Y140640D01*
X136300Y140625D01*
X136300Y140625D01*
X134800D01*
Y140507D01*
X134201D01*
X134181Y140605D01*
X134111Y140711D01*
X134005Y140781D01*
X133880Y140806D01*
X133120D01*
X132995Y140781D01*
X132889Y140711D01*
X132819Y140605D01*
X132809Y140557D01*
X132457D01*
Y141800D01*
X132430Y141937D01*
X132352Y142052D01*
X132352Y142052D01*
X132352Y142052D01*
X132352D01*
X131452Y142952D01*
X131337Y143030D01*
X131200Y143057D01*
X117300D01*
X117163Y143030D01*
X117048Y142952D01*
X116351Y142256D01*
X115906D01*
Y142380D01*
X115881Y142505D01*
X115811Y142611D01*
X115705Y142681D01*
X115580Y142706D01*
X115020D01*
X114895Y142681D01*
X114789Y142611D01*
X114719Y142505D01*
X114694Y142380D01*
Y141620D01*
X114719Y141495D01*
X114789Y141389D01*
X114895Y141319D01*
X115020Y141294D01*
X115580D01*
X115705Y141319D01*
X115811Y141389D01*
X115881Y141495D01*
X115906Y141620D01*
Y141644D01*
X116193D01*
Y138857D01*
X115274D01*
X115193Y138955D01*
X115206Y139020D01*
Y139173D01*
X113794D01*
Y139020D01*
X113817Y138904D01*
X113736Y138806D01*
X112948D01*
X112923Y138930D01*
X112928Y138932D01*
X113064Y139036D01*
X113168Y139172D01*
X113233Y139330D01*
X113239Y139373D01*
X111961D01*
X111967Y139330D01*
X112032Y139172D01*
X112136Y139036D01*
X112272Y138932D01*
X112277Y138930D01*
X112252Y138806D01*
X112100D01*
X112100Y138806D01*
X111983Y138783D01*
X111884Y138716D01*
X110873Y137706D01*
X100800D01*
X100800Y137706D01*
X100683Y137683D01*
X100584Y137616D01*
X100584Y137616D01*
X100384Y137416D01*
X100322Y137323D01*
X100200Y137360D01*
Y144710D01*
X100290Y144800D01*
X149800D01*
Y100200D01*
D02*
G37*
G36*
X131227Y140361D02*
X131270Y140367D01*
X131428Y140432D01*
X131564Y140536D01*
X131623Y140614D01*
X131743Y140573D01*
Y137900D01*
X131743Y137900D01*
X131743D01*
X131770Y137763D01*
X131848Y137648D01*
X133848Y135648D01*
X133963Y135570D01*
X134100Y135543D01*
X136902D01*
X136916Y135471D01*
X136978Y135378D01*
Y135322D01*
X136916Y135229D01*
X136895Y135120D01*
Y134480D01*
X136916Y134371D01*
X136978Y134278D01*
Y134222D01*
X136916Y134129D01*
X136895Y134020D01*
Y133380D01*
X136916Y133271D01*
X136978Y133178D01*
Y133122D01*
X136916Y133029D01*
X136895Y132920D01*
Y132280D01*
X136916Y132171D01*
X136978Y132078D01*
Y132022D01*
X136916Y131929D01*
X136895Y131820D01*
Y131806D01*
X136027D01*
X129106Y138727D01*
Y139575D01*
X130600D01*
Y140421D01*
X130714Y140477D01*
X130772Y140432D01*
X130930Y140367D01*
X130973Y140361D01*
Y141000D01*
X131227D01*
Y140361D01*
D02*
G37*
%LPC*%
G36*
X120950Y120075D02*
X119450D01*
Y118825D01*
X120950D01*
Y120075D01*
D02*
G37*
G36*
X140473Y118839D02*
X140430Y118833D01*
X140272Y118768D01*
X140136Y118664D01*
X140032Y118528D01*
X139967Y118370D01*
X139961Y118327D01*
X140473D01*
Y118839D01*
D02*
G37*
G36*
X140727D02*
Y118327D01*
X141239D01*
X141233Y118370D01*
X141168Y118528D01*
X141064Y118664D01*
X140928Y118768D01*
X140770Y118833D01*
X140727Y118839D01*
D02*
G37*
G36*
X103827Y121939D02*
Y121427D01*
X104339D01*
X104333Y121470D01*
X104268Y121628D01*
X104164Y121764D01*
X104028Y121868D01*
X103870Y121933D01*
X103827Y121939D01*
D02*
G37*
G36*
X122973Y121973D02*
X122461D01*
X122467Y121930D01*
X122532Y121772D01*
X122636Y121636D01*
X122772Y121532D01*
X122930Y121467D01*
X122973Y121461D01*
Y121973D01*
D02*
G37*
G36*
X123739D02*
X123227D01*
Y121461D01*
X123270Y121467D01*
X123428Y121532D01*
X123564Y121636D01*
X123668Y121772D01*
X123733Y121930D01*
X123739Y121973D01*
D02*
G37*
G36*
X103573Y121173D02*
X103061D01*
X103067Y121130D01*
X103132Y120972D01*
X103236Y120836D01*
X103372Y120732D01*
X103530Y120667D01*
X103573Y120661D01*
Y121173D01*
D02*
G37*
G36*
X104339D02*
X103827D01*
Y120661D01*
X103870Y120667D01*
X104028Y120732D01*
X104164Y120836D01*
X104268Y120972D01*
X104333Y121130D01*
X104339Y121173D01*
D02*
G37*
G36*
X103573Y121939D02*
X103530Y121933D01*
X103372Y121868D01*
X103236Y121764D01*
X103132Y121628D01*
X103067Y121470D01*
X103061Y121427D01*
X103573D01*
Y121939D01*
D02*
G37*
G36*
X122880Y118306D02*
X122120D01*
X121995Y118281D01*
X121889Y118211D01*
X121819Y118105D01*
X121794Y117980D01*
Y117856D01*
X120950D01*
Y118175D01*
X119450D01*
Y116925D01*
X120950D01*
Y117244D01*
X121853D01*
X121889Y117189D01*
X121995Y117119D01*
X122120Y117094D01*
X122880D01*
X123005Y117119D01*
X123111Y117189D01*
X123181Y117295D01*
X123206Y117420D01*
Y117980D01*
X123181Y118105D01*
X123111Y118211D01*
X123005Y118281D01*
X122880Y118306D01*
D02*
G37*
G36*
X125673Y117173D02*
X125161D01*
X125167Y117130D01*
X125232Y116972D01*
X125336Y116836D01*
X125472Y116732D01*
X125630Y116667D01*
X125673Y116661D01*
Y117173D01*
D02*
G37*
G36*
X126439D02*
X125927D01*
Y116661D01*
X125970Y116667D01*
X126128Y116732D01*
X126264Y116836D01*
X126368Y116972D01*
X126433Y117130D01*
X126439Y117173D01*
D02*
G37*
G36*
X116373Y117339D02*
X116330Y117333D01*
X116172Y117268D01*
X116036Y117164D01*
X115932Y117028D01*
X115867Y116870D01*
X115861Y116827D01*
X116373D01*
Y117339D01*
D02*
G37*
G36*
X135380Y116806D02*
X135127D01*
Y116327D01*
X135706D01*
Y116480D01*
X135681Y116605D01*
X135611Y116711D01*
X135505Y116781D01*
X135380Y116806D01*
D02*
G37*
G36*
X136873D02*
X136620D01*
X136495Y116781D01*
X136389Y116711D01*
X136319Y116605D01*
X136294Y116480D01*
Y116327D01*
X136873D01*
Y116806D01*
D02*
G37*
G36*
X137380D02*
X137127D01*
Y116327D01*
X137706D01*
Y116480D01*
X137681Y116605D01*
X137611Y116711D01*
X137505Y116781D01*
X137380Y116806D01*
D02*
G37*
G36*
X116627Y117339D02*
Y116827D01*
X117139D01*
X117133Y116870D01*
X117068Y117028D01*
X116964Y117164D01*
X116828Y117268D01*
X116670Y117333D01*
X116627Y117339D01*
D02*
G37*
G36*
X125927Y117939D02*
Y117427D01*
X126439D01*
X126433Y117470D01*
X126368Y117628D01*
X126264Y117764D01*
X126128Y117868D01*
X125970Y117933D01*
X125927Y117939D01*
D02*
G37*
G36*
X140473Y118073D02*
X139961D01*
X139967Y118030D01*
X140032Y117872D01*
X140136Y117736D01*
X140272Y117632D01*
X140430Y117567D01*
X140473Y117561D01*
Y118073D01*
D02*
G37*
G36*
X141239D02*
X140727D01*
Y117561D01*
X140770Y117567D01*
X140928Y117632D01*
X141064Y117736D01*
X141168Y117872D01*
X141233Y118030D01*
X141239Y118073D01*
D02*
G37*
G36*
X113773Y117355D02*
X112480D01*
X112371Y117334D01*
X112278Y117272D01*
X112216Y117179D01*
X112195Y117070D01*
Y116877D01*
X113773D01*
Y117355D01*
D02*
G37*
G36*
X115320D02*
X114027D01*
Y116877D01*
X115605D01*
Y117070D01*
X115584Y117179D01*
X115522Y117272D01*
X115429Y117334D01*
X115320Y117355D01*
D02*
G37*
G36*
X125673Y117939D02*
X125630Y117933D01*
X125472Y117868D01*
X125336Y117764D01*
X125232Y117628D01*
X125167Y117470D01*
X125161Y117427D01*
X125673D01*
Y117939D01*
D02*
G37*
G36*
X127773Y125839D02*
X127730Y125833D01*
X127572Y125768D01*
X127436Y125664D01*
X127332Y125528D01*
X127267Y125370D01*
X127261Y125327D01*
X127773D01*
Y125839D01*
D02*
G37*
G36*
X128027D02*
Y125327D01*
X128539D01*
X128533Y125370D01*
X128468Y125528D01*
X128364Y125664D01*
X128228Y125768D01*
X128070Y125833D01*
X128027Y125839D01*
D02*
G37*
G36*
X132473Y125873D02*
X131961D01*
X131967Y125830D01*
X132032Y125672D01*
X132136Y125536D01*
X132272Y125432D01*
X132430Y125367D01*
X132473Y125361D01*
Y125873D01*
D02*
G37*
G36*
X128539Y125073D02*
X128027D01*
Y124561D01*
X128070Y124567D01*
X128228Y124632D01*
X128364Y124736D01*
X128468Y124872D01*
X128533Y125030D01*
X128539Y125073D01*
D02*
G37*
G36*
X123739Y126073D02*
X122461D01*
X122467Y126030D01*
X122532Y125872D01*
X122577Y125814D01*
X122521Y125700D01*
X122200D01*
X121219Y124719D01*
X121092Y124727D01*
X121064Y124764D01*
X120928Y124868D01*
X120770Y124933D01*
X120727Y124939D01*
Y124300D01*
Y123661D01*
X120770Y123667D01*
X120928Y123732D01*
X121016Y123800D01*
X121100Y123800D01*
Y123800D01*
X121100Y123800D01*
X122300Y122600D01*
X122521D01*
X122577Y122486D01*
X122532Y122428D01*
X122467Y122270D01*
X122461Y122227D01*
X123739D01*
X123733Y122270D01*
X123668Y122428D01*
X123564Y122564D01*
X123576Y122600D01*
X124300D01*
X124777Y123077D01*
X124894Y123029D01*
Y123127D01*
X127105D01*
Y123320D01*
X127084Y123429D01*
X127022Y123522D01*
Y123578D01*
X127084Y123671D01*
X127105Y123780D01*
Y124420D01*
X127084Y124529D01*
X127022Y124622D01*
Y124678D01*
X127084Y124771D01*
X127105Y124880D01*
Y125073D01*
X124894D01*
Y125171D01*
X124777Y125123D01*
X124200Y125700D01*
X123679D01*
X123623Y125814D01*
X123668Y125872D01*
X123733Y126030D01*
X123739Y126073D01*
D02*
G37*
G36*
X118600Y126025D02*
X117100D01*
Y125075D01*
X118600D01*
Y126025D01*
D02*
G37*
G36*
X132473Y126639D02*
X132430Y126633D01*
X132272Y126568D01*
X132136Y126464D01*
X132032Y126328D01*
X131967Y126170D01*
X131961Y126127D01*
X132473D01*
Y126639D01*
D02*
G37*
G36*
X132727D02*
Y126127D01*
X133239D01*
X133233Y126170D01*
X133168Y126328D01*
X133064Y126464D01*
X132928Y126568D01*
X132770Y126633D01*
X132727Y126639D01*
D02*
G37*
G36*
X122973Y126839D02*
X122930Y126833D01*
X122772Y126768D01*
X122636Y126664D01*
X122532Y126528D01*
X122467Y126370D01*
X122461Y126327D01*
X122973D01*
Y126839D01*
D02*
G37*
G36*
X133239Y125873D02*
X132727D01*
Y125361D01*
X132770Y125367D01*
X132928Y125432D01*
X133064Y125536D01*
X133168Y125672D01*
X133233Y125830D01*
X133239Y125873D01*
D02*
G37*
G36*
X113273Y126373D02*
X112761D01*
X112767Y126330D01*
X112832Y126172D01*
X112936Y126036D01*
X113072Y125932D01*
X113230Y125867D01*
X113273Y125861D01*
Y126373D01*
D02*
G37*
G36*
X114039D02*
X113527D01*
Y125861D01*
X113570Y125867D01*
X113728Y125932D01*
X113864Y126036D01*
X113968Y126172D01*
X114033Y126330D01*
X114039Y126373D01*
D02*
G37*
G36*
X127773Y125073D02*
X127261D01*
X127267Y125030D01*
X127332Y124872D01*
X127436Y124736D01*
X127572Y124632D01*
X127730Y124567D01*
X127773Y124561D01*
Y125073D01*
D02*
G37*
G36*
X140239Y122873D02*
X139727D01*
Y122361D01*
X139770Y122367D01*
X139928Y122432D01*
X140064Y122536D01*
X140168Y122672D01*
X140233Y122830D01*
X140239Y122873D01*
D02*
G37*
G36*
X125873Y122873D02*
X124895D01*
Y122680D01*
X124916Y122571D01*
X124978Y122478D01*
X125071Y122416D01*
X125180Y122395D01*
X125873D01*
Y122873D01*
D02*
G37*
G36*
X127105D02*
X126127D01*
Y122395D01*
X126820D01*
X126929Y122416D01*
X127022Y122478D01*
X127084Y122571D01*
X127105Y122680D01*
Y122873D01*
D02*
G37*
G36*
X127773Y122773D02*
X127261D01*
X127267Y122730D01*
X127332Y122572D01*
X127436Y122436D01*
X127572Y122332D01*
X127730Y122267D01*
X127773Y122261D01*
Y122773D01*
D02*
G37*
G36*
X128539D02*
X128027D01*
Y122261D01*
X128070Y122267D01*
X128228Y122332D01*
X128364Y122436D01*
X128468Y122572D01*
X128533Y122730D01*
X128539Y122773D01*
D02*
G37*
G36*
X138820Y128005D02*
X137180D01*
X137071Y127984D01*
X136978Y127922D01*
X136916Y127829D01*
X136895Y127720D01*
Y127080D01*
X136916Y126971D01*
X136978Y126878D01*
Y126822D01*
X136916Y126729D01*
X136895Y126620D01*
Y126606D01*
X135200D01*
X135083Y126583D01*
X135043Y126556D01*
X134984Y126516D01*
X134984Y126516D01*
X132784Y124316D01*
X132717Y124217D01*
X132694Y124100D01*
X132694Y124100D01*
Y118406D01*
X132620D01*
X132495Y118381D01*
X132389Y118311D01*
X132319Y118205D01*
X132294Y118080D01*
Y117520D01*
X132319Y117395D01*
X132389Y117289D01*
X132495Y117219D01*
X132620Y117194D01*
X133380D01*
X133505Y117219D01*
X133611Y117289D01*
X133681Y117395D01*
X133706Y117520D01*
Y118080D01*
X133681Y118205D01*
X133611Y118311D01*
X133505Y118381D01*
X133380Y118406D01*
X133306D01*
Y123973D01*
X135327Y125994D01*
X136895D01*
Y125980D01*
X136916Y125871D01*
X136978Y125778D01*
Y125722D01*
X136916Y125629D01*
X136895Y125520D01*
Y125506D01*
X135700D01*
X135583Y125483D01*
X135484Y125416D01*
X134784Y124716D01*
X134717Y124617D01*
X134694Y124500D01*
X134694Y124500D01*
Y118406D01*
X134620D01*
X134495Y118381D01*
X134389Y118311D01*
X134319Y118205D01*
X134294Y118080D01*
Y117520D01*
X134319Y117395D01*
X134389Y117289D01*
X134495Y117219D01*
X134620Y117194D01*
X135380D01*
X135505Y117219D01*
X135611Y117289D01*
X135681Y117395D01*
X135706Y117520D01*
Y118080D01*
X135681Y118205D01*
X135611Y118311D01*
X135505Y118381D01*
X135380Y118406D01*
X135306D01*
Y124373D01*
X135827Y124894D01*
X136895D01*
Y124880D01*
X136916Y124771D01*
X136978Y124678D01*
Y124622D01*
X136916Y124529D01*
X136895Y124420D01*
Y124406D01*
X136600D01*
X136483Y124383D01*
X136384Y124316D01*
X136084Y124016D01*
X136017Y123917D01*
X135994Y123800D01*
X135994Y123800D01*
Y121500D01*
X135994Y121500D01*
X136017Y121383D01*
X136084Y121284D01*
X136694Y120673D01*
Y118406D01*
X136620D01*
X136495Y118381D01*
X136389Y118311D01*
X136319Y118205D01*
X136294Y118080D01*
Y117520D01*
X136319Y117395D01*
X136389Y117289D01*
X136495Y117219D01*
X136620Y117194D01*
X137380D01*
X137505Y117219D01*
X137611Y117289D01*
X137681Y117395D01*
X137706Y117520D01*
Y118080D01*
X137681Y118205D01*
X137611Y118311D01*
X137505Y118381D01*
X137380Y118406D01*
X137306D01*
Y120800D01*
X137306Y120800D01*
X137283Y120917D01*
X137216Y121016D01*
X137216Y121016D01*
X136606Y121627D01*
Y123673D01*
X136727Y123794D01*
X136895D01*
Y123780D01*
X136916Y123671D01*
X136978Y123578D01*
Y123522D01*
X136916Y123429D01*
X136895Y123320D01*
Y123127D01*
X138000D01*
Y123000D01*
X138127D01*
Y122395D01*
X138820D01*
X138929Y122416D01*
X139022Y122478D01*
X139035Y122498D01*
X139160Y122518D01*
X139272Y122432D01*
X139430Y122367D01*
X139473Y122361D01*
Y123000D01*
Y123639D01*
X139430Y123633D01*
X139272Y123568D01*
X139160Y123482D01*
X139035Y123502D01*
X139022Y123522D01*
Y123578D01*
X139084Y123671D01*
X139105Y123780D01*
Y124420D01*
X139084Y124529D01*
X139022Y124622D01*
Y124678D01*
X139084Y124771D01*
X139105Y124880D01*
Y125520D01*
X139084Y125629D01*
X139022Y125722D01*
Y125778D01*
X139084Y125871D01*
X139105Y125980D01*
Y126620D01*
X139084Y126729D01*
X139022Y126822D01*
Y126878D01*
X139084Y126971D01*
X139105Y127080D01*
Y127720D01*
X139084Y127829D01*
X139022Y127922D01*
X138929Y127984D01*
X138820Y128005D01*
D02*
G37*
G36*
X139727Y123639D02*
Y123127D01*
X140239D01*
X140233Y123170D01*
X140168Y123328D01*
X140064Y123464D01*
X139928Y123568D01*
X139770Y123633D01*
X139727Y123639D01*
D02*
G37*
G36*
X120473Y124173D02*
X119961D01*
X119967Y124130D01*
X120032Y123972D01*
X120136Y123836D01*
X120272Y123732D01*
X120430Y123667D01*
X120473Y123661D01*
Y124173D01*
D02*
G37*
G36*
Y124939D02*
X120430Y124933D01*
X120272Y124868D01*
X120136Y124764D01*
X120032Y124628D01*
X119967Y124470D01*
X119961Y124427D01*
X120473D01*
Y124939D01*
D02*
G37*
G36*
X137873Y122873D02*
X136895D01*
Y122680D01*
X136916Y122571D01*
X136978Y122478D01*
X137071Y122416D01*
X137180Y122395D01*
X137873D01*
Y122873D01*
D02*
G37*
G36*
X127773Y123539D02*
X127730Y123533D01*
X127572Y123468D01*
X127436Y123364D01*
X127332Y123228D01*
X127267Y123070D01*
X127261Y123027D01*
X127773D01*
Y123539D01*
D02*
G37*
G36*
X128027D02*
Y123027D01*
X128539D01*
X128533Y123070D01*
X128468Y123228D01*
X128364Y123364D01*
X128228Y123468D01*
X128070Y123533D01*
X128027Y123539D01*
D02*
G37*
G36*
X137327Y102039D02*
Y101527D01*
X137839D01*
X137833Y101570D01*
X137768Y101728D01*
X137664Y101864D01*
X137528Y101968D01*
X137370Y102033D01*
X137327Y102039D01*
D02*
G37*
G36*
X103373Y106198D02*
X103076Y106175D01*
X102663Y106076D01*
X102270Y105913D01*
X101908Y105691D01*
X101585Y105415D01*
X101309Y105092D01*
X101087Y104730D01*
X100924Y104337D01*
X100825Y103924D01*
X100802Y103627D01*
X103373D01*
Y106198D01*
D02*
G37*
G36*
X103627D02*
Y103627D01*
X106198D01*
X106175Y103924D01*
X106076Y104337D01*
X105913Y104730D01*
X105691Y105092D01*
X105415Y105415D01*
X105092Y105691D01*
X104730Y105913D01*
X104337Y106076D01*
X103924Y106175D01*
X103627Y106198D01*
D02*
G37*
G36*
X114273Y102039D02*
X114230Y102033D01*
X114072Y101968D01*
X113936Y101864D01*
X113832Y101728D01*
X113767Y101570D01*
X113761Y101527D01*
X114273D01*
Y102039D01*
D02*
G37*
G36*
X114527D02*
Y101527D01*
X115039D01*
X115033Y101570D01*
X114968Y101728D01*
X114864Y101864D01*
X114728Y101968D01*
X114570Y102033D01*
X114527Y102039D01*
D02*
G37*
G36*
X137073D02*
X137030Y102033D01*
X136872Y101968D01*
X136736Y101864D01*
X136632Y101728D01*
X136567Y101570D01*
X136561Y101527D01*
X137073D01*
Y102039D01*
D02*
G37*
G36*
X141473Y109473D02*
X140961D01*
X140967Y109430D01*
X141032Y109272D01*
X141136Y109136D01*
X141272Y109032D01*
X141430Y108967D01*
X141473Y108961D01*
Y109473D01*
D02*
G37*
G36*
X142239D02*
X141727D01*
Y108961D01*
X141770Y108967D01*
X141928Y109032D01*
X142064Y109136D01*
X142168Y109272D01*
X142233Y109430D01*
X142239Y109473D01*
D02*
G37*
G36*
X141473Y110239D02*
X141430Y110233D01*
X141272Y110168D01*
X141136Y110064D01*
X141032Y109928D01*
X140967Y109770D01*
X140961Y109727D01*
X141473D01*
Y110239D01*
D02*
G37*
G36*
X146373Y106198D02*
X146076Y106175D01*
X145663Y106076D01*
X145270Y105913D01*
X144908Y105691D01*
X144585Y105415D01*
X144309Y105092D01*
X144087Y104730D01*
X143924Y104337D01*
X143825Y103924D01*
X143802Y103627D01*
X146373D01*
Y106198D01*
D02*
G37*
G36*
X146627D02*
Y103627D01*
X149198D01*
X149175Y103924D01*
X149076Y104337D01*
X148913Y104730D01*
X148691Y105092D01*
X148415Y105415D01*
X148092Y105691D01*
X147730Y105913D01*
X147337Y106076D01*
X146924Y106175D01*
X146627Y106198D01*
D02*
G37*
G36*
X149090Y109333D02*
X146510D01*
X146350Y109301D01*
X146214Y109211D01*
X146124Y109075D01*
X146092Y108915D01*
Y107235D01*
X146124Y107075D01*
X146214Y106939D01*
X146350Y106849D01*
X146510Y106817D01*
X149090D01*
X149250Y106849D01*
X149386Y106939D01*
X149476Y107075D01*
X149508Y107235D01*
Y108915D01*
X149476Y109075D01*
X149386Y109211D01*
X149250Y109301D01*
X149090Y109333D01*
D02*
G37*
G36*
X115039Y101273D02*
X114527D01*
Y100761D01*
X114570Y100767D01*
X114728Y100832D01*
X114864Y100936D01*
X114968Y101072D01*
X115033Y101230D01*
X115039Y101273D01*
D02*
G37*
G36*
X137073D02*
X136561D01*
X136567Y101230D01*
X136632Y101072D01*
X136736Y100936D01*
X136872Y100832D01*
X137030Y100767D01*
X137073Y100761D01*
Y101273D01*
D02*
G37*
G36*
X137839D02*
X137327D01*
Y100761D01*
X137370Y100767D01*
X137528Y100832D01*
X137664Y100936D01*
X137768Y101072D01*
X137833Y101230D01*
X137839Y101273D01*
D02*
G37*
G36*
X125773Y101173D02*
X125261D01*
X125267Y101130D01*
X125332Y100972D01*
X125436Y100836D01*
X125572Y100732D01*
X125730Y100667D01*
X125773Y100661D01*
Y101173D01*
D02*
G37*
G36*
X126539D02*
X126027D01*
Y100661D01*
X126070Y100667D01*
X126228Y100732D01*
X126364Y100836D01*
X126468Y100972D01*
X126533Y101130D01*
X126539Y101173D01*
D02*
G37*
G36*
X114273Y101273D02*
X113761D01*
X113767Y101230D01*
X113832Y101072D01*
X113936Y100936D01*
X114072Y100832D01*
X114230Y100767D01*
X114273Y100761D01*
Y101273D01*
D02*
G37*
G36*
X149198Y103373D02*
X146627D01*
Y100802D01*
X146924Y100825D01*
X147337Y100924D01*
X147730Y101087D01*
X148092Y101309D01*
X148415Y101585D01*
X148691Y101908D01*
X148913Y102270D01*
X149076Y102663D01*
X149175Y103076D01*
X149198Y103373D01*
D02*
G37*
G36*
X125773Y101939D02*
X125730Y101933D01*
X125572Y101868D01*
X125436Y101764D01*
X125332Y101628D01*
X125267Y101470D01*
X125261Y101427D01*
X125773D01*
Y101939D01*
D02*
G37*
G36*
X126027D02*
Y101427D01*
X126539D01*
X126533Y101470D01*
X126468Y101628D01*
X126364Y101764D01*
X126228Y101868D01*
X126070Y101933D01*
X126027Y101939D01*
D02*
G37*
G36*
X103373Y103373D02*
X100802D01*
X100825Y103076D01*
X100924Y102663D01*
X101087Y102270D01*
X101309Y101908D01*
X101585Y101585D01*
X101908Y101309D01*
X102270Y101087D01*
X102663Y100924D01*
X103076Y100825D01*
X103373Y100802D01*
Y103373D01*
D02*
G37*
G36*
X106198D02*
X103627D01*
Y100802D01*
X103924Y100825D01*
X104337Y100924D01*
X104730Y101087D01*
X105092Y101309D01*
X105415Y101585D01*
X105691Y101908D01*
X105913Y102270D01*
X106076Y102663D01*
X106175Y103076D01*
X106198Y103373D01*
D02*
G37*
G36*
X146373D02*
X143802D01*
X143825Y103076D01*
X143924Y102663D01*
X144087Y102270D01*
X144309Y101908D01*
X144585Y101585D01*
X144908Y101309D01*
X145270Y101087D01*
X145663Y100924D01*
X146076Y100825D01*
X146373Y100802D01*
Y103373D01*
D02*
G37*
G36*
X141727Y110239D02*
Y109727D01*
X142239D01*
X142233Y109770D01*
X142168Y109928D01*
X142064Y110064D01*
X141928Y110168D01*
X141770Y110233D01*
X141727Y110239D01*
D02*
G37*
G36*
X137706Y116073D02*
X137127D01*
Y115594D01*
X137380D01*
X137505Y115619D01*
X137611Y115689D01*
X137681Y115795D01*
X137706Y115920D01*
Y116073D01*
D02*
G37*
G36*
X149090Y118183D02*
X146510D01*
X146350Y118151D01*
X146214Y118061D01*
X146124Y117925D01*
X146092Y117765D01*
Y116085D01*
X146124Y115925D01*
X146214Y115789D01*
X146350Y115699D01*
X146510Y115667D01*
X149090D01*
X149250Y115699D01*
X149386Y115789D01*
X149476Y115925D01*
X149508Y116085D01*
Y117765D01*
X149476Y117925D01*
X149386Y118061D01*
X149250Y118151D01*
X149090Y118183D01*
D02*
G37*
G36*
X116373Y116573D02*
X115861D01*
X115867Y116530D01*
X115932Y116372D01*
X116036Y116236D01*
X116172Y116132D01*
X116330Y116067D01*
X116373Y116061D01*
Y116573D01*
D02*
G37*
G36*
X134873Y116073D02*
X134294D01*
Y115920D01*
X134319Y115795D01*
X134389Y115689D01*
X134495Y115619D01*
X134620Y115594D01*
X134873D01*
Y116073D01*
D02*
G37*
G36*
X135706D02*
X135127D01*
Y115594D01*
X135380D01*
X135505Y115619D01*
X135611Y115689D01*
X135681Y115795D01*
X135706Y115920D01*
Y116073D01*
D02*
G37*
G36*
X136873D02*
X136294D01*
Y115920D01*
X136319Y115795D01*
X136389Y115689D01*
X136495Y115619D01*
X136620Y115594D01*
X136873D01*
Y116073D01*
D02*
G37*
G36*
X132873Y116806D02*
X132620D01*
X132495Y116781D01*
X132389Y116711D01*
X132319Y116605D01*
X132294Y116480D01*
Y116327D01*
X132873D01*
Y116806D01*
D02*
G37*
G36*
X133380D02*
X133127D01*
Y116327D01*
X133706D01*
Y116480D01*
X133681Y116605D01*
X133611Y116711D01*
X133505Y116781D01*
X133380Y116806D01*
D02*
G37*
G36*
X134873D02*
X134620D01*
X134495Y116781D01*
X134389Y116711D01*
X134319Y116605D01*
X134294Y116480D01*
Y116327D01*
X134873D01*
Y116806D01*
D02*
G37*
G36*
X117139Y116573D02*
X116627D01*
Y116061D01*
X116670Y116067D01*
X116828Y116132D01*
X116964Y116236D01*
X117068Y116372D01*
X117133Y116530D01*
X117139Y116573D01*
D02*
G37*
G36*
X113773Y116623D02*
X112195D01*
Y116430D01*
X112216Y116321D01*
X112278Y116228D01*
X112371Y116166D01*
X112480Y116145D01*
X113773D01*
Y116623D01*
D02*
G37*
G36*
X115605D02*
X114027D01*
Y116145D01*
X115320D01*
X115429Y116166D01*
X115522Y116228D01*
X115584Y116321D01*
X115605Y116430D01*
Y116623D01*
D02*
G37*
G36*
X103927Y112539D02*
Y112027D01*
X104439D01*
X104433Y112070D01*
X104368Y112228D01*
X104264Y112364D01*
X104128Y112468D01*
X103970Y112533D01*
X103927Y112539D01*
D02*
G37*
G36*
X142339Y114273D02*
X141827D01*
Y113761D01*
X141870Y113767D01*
X142028Y113832D01*
X142164Y113936D01*
X142268Y114072D01*
X142333Y114230D01*
X142339Y114273D01*
D02*
G37*
G36*
X144073Y114980D02*
X142780D01*
X142671Y114959D01*
X142578Y114897D01*
X142516Y114804D01*
X142495Y114695D01*
Y114502D01*
X144073D01*
Y114980D01*
D02*
G37*
G36*
X103673Y111773D02*
X103161D01*
X103167Y111730D01*
X103232Y111572D01*
X103336Y111436D01*
X103472Y111332D01*
X103630Y111267D01*
X103673Y111261D01*
Y111773D01*
D02*
G37*
G36*
X104439D02*
X103927D01*
Y111261D01*
X103970Y111267D01*
X104128Y111332D01*
X104264Y111436D01*
X104368Y111572D01*
X104433Y111730D01*
X104439Y111773D01*
D02*
G37*
G36*
X103673Y112539D02*
X103630Y112533D01*
X103472Y112468D01*
X103336Y112364D01*
X103232Y112228D01*
X103167Y112070D01*
X103161Y112027D01*
X103673D01*
Y112539D01*
D02*
G37*
G36*
X135127Y115139D02*
Y114627D01*
X135639D01*
X135633Y114670D01*
X135568Y114828D01*
X135464Y114964D01*
X135328Y115068D01*
X135170Y115133D01*
X135127Y115139D01*
D02*
G37*
G36*
X132873Y116073D02*
X132294D01*
Y115920D01*
X132319Y115795D01*
X132389Y115689D01*
X132495Y115619D01*
X132620Y115594D01*
X132873D01*
Y116073D01*
D02*
G37*
G36*
X133706D02*
X133127D01*
Y115594D01*
X133380D01*
X133505Y115619D01*
X133611Y115689D01*
X133681Y115795D01*
X133706Y115920D01*
Y116073D01*
D02*
G37*
G36*
X145620Y114980D02*
X144327D01*
Y114502D01*
X145905D01*
Y114695D01*
X145884Y114804D01*
X145822Y114897D01*
X145729Y114959D01*
X145620Y114980D01*
D02*
G37*
G36*
X141827Y115039D02*
Y114527D01*
X142339D01*
X142333Y114570D01*
X142268Y114728D01*
X142164Y114864D01*
X142028Y114968D01*
X141870Y115033D01*
X141827Y115039D01*
D02*
G37*
G36*
X134873Y115139D02*
X134830Y115133D01*
X134672Y115068D01*
X134536Y114964D01*
X134432Y114828D01*
X134367Y114670D01*
X134361Y114627D01*
X134873D01*
Y115139D01*
D02*
G37*
G36*
X123227Y126839D02*
Y126327D01*
X123739D01*
X123733Y126370D01*
X123668Y126528D01*
X123564Y126664D01*
X123428Y126768D01*
X123270Y126833D01*
X123227Y126839D01*
D02*
G37*
G36*
X127900Y140525D02*
X127277D01*
Y140177D01*
X127900D01*
Y140525D01*
D02*
G37*
G36*
X108573Y140873D02*
X108094D01*
Y140620D01*
X108119Y140495D01*
X108189Y140389D01*
X108295Y140319D01*
X108420Y140294D01*
X108573D01*
Y140873D01*
D02*
G37*
G36*
X109306D02*
X108827D01*
Y140294D01*
X108980D01*
X109105Y140319D01*
X109211Y140389D01*
X109281Y140495D01*
X109306Y140620D01*
Y140873D01*
D02*
G37*
G36*
X112473Y140139D02*
X112430Y140133D01*
X112272Y140068D01*
X112136Y139964D01*
X112032Y139828D01*
X111967Y139670D01*
X111961Y139627D01*
X112473D01*
Y140139D01*
D02*
G37*
G36*
X112727D02*
Y139627D01*
X113239D01*
X113233Y139670D01*
X113168Y139828D01*
X113064Y139964D01*
X112928Y140068D01*
X112770Y140133D01*
X112727Y140139D01*
D02*
G37*
G36*
X127023Y140525D02*
X126400D01*
Y140177D01*
X127023D01*
Y140525D01*
D02*
G37*
G36*
X125380Y140806D02*
X125127D01*
Y140327D01*
X125706D01*
Y140480D01*
X125681Y140605D01*
X125611Y140711D01*
X125505Y140781D01*
X125380Y140806D01*
D02*
G37*
G36*
X142373Y141556D02*
X142120D01*
X141995Y141531D01*
X141889Y141461D01*
X141819Y141355D01*
X141794Y141230D01*
Y141077D01*
X142373D01*
Y141556D01*
D02*
G37*
G36*
X142880D02*
X142627D01*
Y141077D01*
X143206D01*
Y141230D01*
X143181Y141355D01*
X143111Y141461D01*
X143005Y141531D01*
X142880Y141556D01*
D02*
G37*
G36*
X119573Y140873D02*
X119094D01*
Y140620D01*
X119119Y140495D01*
X119189Y140389D01*
X119295Y140319D01*
X119420Y140294D01*
X119573D01*
Y140873D01*
D02*
G37*
G36*
X120306D02*
X119827D01*
Y140294D01*
X119980D01*
X120105Y140319D01*
X120211Y140389D01*
X120281Y140495D01*
X120306Y140620D01*
Y140873D01*
D02*
G37*
G36*
X124873Y140806D02*
X124620D01*
X124495Y140781D01*
X124389Y140711D01*
X124319Y140605D01*
X124294Y140480D01*
Y140327D01*
X124873D01*
Y140806D01*
D02*
G37*
G36*
X149198Y141373D02*
X146627D01*
Y138802D01*
X146924Y138825D01*
X147337Y138924D01*
X147730Y139087D01*
X148092Y139309D01*
X148415Y139585D01*
X148691Y139908D01*
X148913Y140270D01*
X149076Y140663D01*
X149175Y141076D01*
X149198Y141373D01*
D02*
G37*
G36*
X125773Y139439D02*
X125730Y139433D01*
X125572Y139368D01*
X125436Y139264D01*
X125332Y139128D01*
X125267Y138970D01*
X125261Y138927D01*
X125773D01*
Y139439D01*
D02*
G37*
G36*
X126027D02*
Y138927D01*
X126539D01*
X126533Y138970D01*
X126468Y139128D01*
X126364Y139264D01*
X126228Y139368D01*
X126070Y139433D01*
X126027Y139439D01*
D02*
G37*
G36*
X138227Y139139D02*
Y138627D01*
X138739D01*
X138733Y138670D01*
X138668Y138828D01*
X138564Y138964D01*
X138428Y139068D01*
X138270Y139133D01*
X138227Y139139D01*
D02*
G37*
G36*
X103373Y141373D02*
X100802D01*
X100825Y141076D01*
X100924Y140663D01*
X101087Y140270D01*
X101309Y139908D01*
X101585Y139585D01*
X101908Y139309D01*
X102270Y139087D01*
X102663Y138924D01*
X103076Y138825D01*
X103373Y138802D01*
Y141373D01*
D02*
G37*
G36*
X106198D02*
X103627D01*
Y138802D01*
X103924Y138825D01*
X104337Y138924D01*
X104730Y139087D01*
X105092Y139309D01*
X105415Y139585D01*
X105691Y139908D01*
X105913Y140270D01*
X106076Y140663D01*
X106175Y141076D01*
X106198Y141373D01*
D02*
G37*
G36*
X127900Y139923D02*
X127277D01*
Y139575D01*
X127900D01*
Y139923D01*
D02*
G37*
G36*
X124873Y140073D02*
X124294D01*
Y139920D01*
X124319Y139795D01*
X124389Y139689D01*
X124495Y139619D01*
X124620Y139594D01*
X124873D01*
Y140073D01*
D02*
G37*
G36*
X125706D02*
X125127D01*
Y139594D01*
X125380D01*
X125505Y139619D01*
X125611Y139689D01*
X125681Y139795D01*
X125706Y139920D01*
Y140073D01*
D02*
G37*
G36*
X114373Y139906D02*
X114120D01*
X113995Y139881D01*
X113889Y139811D01*
X113819Y139705D01*
X113794Y139580D01*
Y139427D01*
X114373D01*
Y139906D01*
D02*
G37*
G36*
X114880D02*
X114627D01*
Y139427D01*
X115206D01*
Y139580D01*
X115181Y139705D01*
X115111Y139811D01*
X115005Y139881D01*
X114880Y139906D01*
D02*
G37*
G36*
X127023Y139923D02*
X126400D01*
Y139575D01*
X127023D01*
Y139923D01*
D02*
G37*
G36*
X140880Y142406D02*
X140627D01*
Y141927D01*
X141206D01*
Y142080D01*
X141181Y142205D01*
X141111Y142311D01*
X141005Y142381D01*
X140880Y142406D01*
D02*
G37*
G36*
X141673Y142873D02*
X141161D01*
X141167Y142830D01*
X141232Y142672D01*
X141336Y142536D01*
X141472Y142432D01*
X141630Y142367D01*
X141673Y142361D01*
Y142873D01*
D02*
G37*
G36*
X142439D02*
X141927D01*
Y142361D01*
X141970Y142367D01*
X142128Y142432D01*
X142264Y142536D01*
X142368Y142672D01*
X142433Y142830D01*
X142439Y142873D01*
D02*
G37*
G36*
X146627Y144198D02*
Y141627D01*
X149198D01*
X149175Y141924D01*
X149076Y142337D01*
X148913Y142730D01*
X148691Y143092D01*
X148415Y143415D01*
X148092Y143691D01*
X147730Y143913D01*
X147337Y144076D01*
X146924Y144175D01*
X146627Y144198D01*
D02*
G37*
G36*
X133373Y142406D02*
X133120D01*
X132995Y142381D01*
X132889Y142311D01*
X132819Y142205D01*
X132794Y142080D01*
Y141927D01*
X133373D01*
Y142406D01*
D02*
G37*
G36*
X133880D02*
X133627D01*
Y141927D01*
X134206D01*
Y142080D01*
X134181Y142205D01*
X134111Y142311D01*
X134005Y142381D01*
X133880Y142406D01*
D02*
G37*
G36*
X141927Y143639D02*
Y143127D01*
X142439D01*
X142433Y143170D01*
X142368Y143328D01*
X142264Y143464D01*
X142128Y143568D01*
X141970Y143633D01*
X141927Y143639D01*
D02*
G37*
G36*
X133373Y144139D02*
X133330Y144133D01*
X133172Y144068D01*
X133036Y143964D01*
X132932Y143828D01*
X132867Y143670D01*
X132861Y143627D01*
X133373D01*
Y144139D01*
D02*
G37*
G36*
X133627D02*
Y143627D01*
X134139D01*
X134133Y143670D01*
X134068Y143828D01*
X133964Y143964D01*
X133828Y144068D01*
X133670Y144133D01*
X133627Y144139D01*
D02*
G37*
G36*
X133373Y143373D02*
X132861D01*
X132867Y143330D01*
X132932Y143172D01*
X133036Y143036D01*
X133172Y142932D01*
X133330Y142867D01*
X133373Y142861D01*
Y143373D01*
D02*
G37*
G36*
X134139D02*
X133627D01*
Y142861D01*
X133670Y142867D01*
X133828Y142932D01*
X133964Y143036D01*
X134068Y143172D01*
X134133Y143330D01*
X134139Y143373D01*
D02*
G37*
G36*
X141673Y143639D02*
X141630Y143633D01*
X141472Y143568D01*
X141336Y143464D01*
X141232Y143328D01*
X141167Y143170D01*
X141161Y143127D01*
X141673D01*
Y143639D01*
D02*
G37*
G36*
X119980Y141706D02*
X119827D01*
Y141127D01*
X120306D01*
Y141380D01*
X120281Y141505D01*
X120211Y141611D01*
X120105Y141681D01*
X119980Y141706D01*
D02*
G37*
G36*
X133373Y141673D02*
X132794D01*
Y141520D01*
X132819Y141395D01*
X132889Y141289D01*
X132995Y141219D01*
X133120Y141194D01*
X133373D01*
Y141673D01*
D02*
G37*
G36*
X134206D02*
X133627D01*
Y141194D01*
X133880D01*
X134005Y141219D01*
X134111Y141289D01*
X134181Y141395D01*
X134206Y141520D01*
Y141673D01*
D02*
G37*
G36*
X108573Y141706D02*
X108420D01*
X108295Y141681D01*
X108189Y141611D01*
X108119Y141505D01*
X108094Y141380D01*
Y141127D01*
X108573D01*
Y141706D01*
D02*
G37*
G36*
X108980D02*
X108827D01*
Y141127D01*
X109306D01*
Y141380D01*
X109281Y141505D01*
X109211Y141611D01*
X109105Y141681D01*
X108980Y141706D01*
D02*
G37*
G36*
X119573D02*
X119420D01*
X119295Y141681D01*
X119189Y141611D01*
X119119Y141505D01*
X119094Y141380D01*
Y141127D01*
X119573D01*
Y141706D01*
D02*
G37*
G36*
X103373Y144198D02*
X103076Y144175D01*
X102663Y144076D01*
X102270Y143913D01*
X101908Y143691D01*
X101585Y143415D01*
X101309Y143092D01*
X101087Y142730D01*
X100924Y142337D01*
X100825Y141924D01*
X100802Y141627D01*
X103373D01*
Y144198D01*
D02*
G37*
G36*
X103627D02*
Y141627D01*
X106198D01*
X106175Y141924D01*
X106076Y142337D01*
X105913Y142730D01*
X105691Y143092D01*
X105415Y143415D01*
X105092Y143691D01*
X104730Y143913D01*
X104337Y144076D01*
X103924Y144175D01*
X103627Y144198D01*
D02*
G37*
G36*
X146373D02*
X146076Y144175D01*
X145663Y144076D01*
X145270Y143913D01*
X144908Y143691D01*
X144585Y143415D01*
X144309Y143092D01*
X144087Y142730D01*
X143924Y142337D01*
X143825Y141924D01*
X143802Y141627D01*
X146373D01*
Y144198D01*
D02*
G37*
G36*
X141206Y141673D02*
X140627D01*
Y141194D01*
X140880D01*
X141005Y141219D01*
X141111Y141289D01*
X141181Y141395D01*
X141206Y141520D01*
Y141673D01*
D02*
G37*
G36*
X136300Y142525D02*
X134800D01*
Y141575D01*
X136260D01*
X136311Y141567D01*
X136320Y141560D01*
X136337Y141434D01*
X136332Y141428D01*
X136267Y141270D01*
X136261Y141227D01*
X136773D01*
Y141739D01*
X136730Y141733D01*
X136572Y141668D01*
X136439Y141566D01*
X136352D01*
X136303Y141582D01*
D01*
D01*
D01*
D01*
Y141582D01*
X136300Y141583D01*
Y142525D01*
D02*
G37*
G36*
X113980Y142706D02*
X113420D01*
X113295Y142681D01*
X113189Y142611D01*
X113119Y142505D01*
X113094Y142380D01*
Y142306D01*
X112200D01*
X112083Y142283D01*
X111984Y142216D01*
X111984Y142216D01*
X111073Y141306D01*
X110906D01*
Y141380D01*
X110881Y141505D01*
X110811Y141611D01*
X110705Y141681D01*
X110580Y141706D01*
X110020D01*
X109895Y141681D01*
X109789Y141611D01*
X109719Y141505D01*
X109694Y141380D01*
Y140620D01*
X109719Y140495D01*
X109789Y140389D01*
X109895Y140319D01*
X110020Y140294D01*
X110580D01*
X110705Y140319D01*
X110811Y140389D01*
X110881Y140495D01*
X110906Y140620D01*
Y140694D01*
X111200D01*
X111200Y140694D01*
X111317Y140717D01*
X111416Y140784D01*
X112327Y141694D01*
X113094D01*
Y141620D01*
X113119Y141495D01*
X113189Y141389D01*
X113295Y141319D01*
X113420Y141294D01*
X113980D01*
X114105Y141319D01*
X114211Y141389D01*
X114281Y141495D01*
X114306Y141620D01*
Y142380D01*
X114281Y142505D01*
X114211Y142611D01*
X114105Y142681D01*
X113980Y142706D01*
D02*
G37*
G36*
X137973Y139139D02*
X137930Y139133D01*
X137772Y139068D01*
X137636Y138964D01*
X137532Y138828D01*
X137467Y138670D01*
X137461Y138627D01*
X137973D01*
Y139139D01*
D02*
G37*
G36*
X121873Y130906D02*
X121620D01*
X121495Y130881D01*
X121389Y130811D01*
X121319Y130705D01*
X121294Y130580D01*
Y130427D01*
X121873D01*
Y130906D01*
D02*
G37*
G36*
X122380D02*
X122127D01*
Y130427D01*
X122706D01*
Y130580D01*
X122681Y130705D01*
X122611Y130811D01*
X122505Y130881D01*
X122380Y130906D01*
D02*
G37*
G36*
X123373Y131439D02*
X123330Y131433D01*
X123172Y131368D01*
X123036Y131264D01*
X122932Y131128D01*
X122867Y130970D01*
X122861Y130927D01*
X123373D01*
Y131439D01*
D02*
G37*
G36*
X122706Y130173D02*
X122127D01*
Y129694D01*
X122380D01*
X122505Y129719D01*
X122611Y129789D01*
X122681Y129895D01*
X122706Y130020D01*
Y130173D01*
D02*
G37*
G36*
X123373Y130673D02*
X122861D01*
X122867Y130630D01*
X122932Y130472D01*
X123036Y130336D01*
X123172Y130232D01*
X123330Y130167D01*
X123373Y130161D01*
Y130673D01*
D02*
G37*
G36*
X124139D02*
X123627D01*
Y130161D01*
X123670Y130167D01*
X123828Y130232D01*
X123964Y130336D01*
X124068Y130472D01*
X124133Y130630D01*
X124139Y130673D01*
D02*
G37*
G36*
X117373Y133173D02*
X116861D01*
X116867Y133130D01*
X116932Y132972D01*
X117036Y132836D01*
X117172Y132732D01*
X117330Y132667D01*
X117373Y132661D01*
Y133173D01*
D02*
G37*
G36*
X127973Y133239D02*
X127930Y133233D01*
X127772Y133168D01*
X127636Y133064D01*
X127532Y132928D01*
X127467Y132770D01*
X127461Y132727D01*
X127973D01*
Y133239D01*
D02*
G37*
G36*
X128227D02*
Y132727D01*
X128739D01*
X128733Y132770D01*
X128668Y132928D01*
X128564Y133064D01*
X128428Y133168D01*
X128270Y133233D01*
X128227Y133239D01*
D02*
G37*
G36*
X123627Y131439D02*
Y130927D01*
X124139D01*
X124133Y130970D01*
X124068Y131128D01*
X123964Y131264D01*
X123828Y131368D01*
X123670Y131433D01*
X123627Y131439D01*
D02*
G37*
G36*
X127973Y132473D02*
X127461D01*
X127467Y132430D01*
X127532Y132272D01*
X127636Y132136D01*
X127772Y132032D01*
X127930Y131967D01*
X127973Y131961D01*
Y132473D01*
D02*
G37*
G36*
X128739D02*
X128227D01*
Y131961D01*
X128270Y131967D01*
X128428Y132032D01*
X128564Y132136D01*
X128668Y132272D01*
X128733Y132430D01*
X128739Y132473D01*
D02*
G37*
G36*
X147373Y129321D02*
X147252Y129306D01*
X147021Y129210D01*
X146822Y129058D01*
X146670Y128859D01*
X146574Y128628D01*
X146559Y128507D01*
X147373D01*
Y129321D01*
D02*
G37*
G36*
X110773Y129273D02*
X110261D01*
X110267Y129230D01*
X110332Y129072D01*
X110436Y128936D01*
X110572Y128832D01*
X110730Y128767D01*
X110773Y128761D01*
Y129273D01*
D02*
G37*
G36*
X111539D02*
X111027D01*
Y128761D01*
X111070Y128767D01*
X111228Y128832D01*
X111364Y128936D01*
X111468Y129072D01*
X111533Y129230D01*
X111539Y129273D01*
D02*
G37*
G36*
X113273Y127139D02*
X113230Y127133D01*
X113072Y127068D01*
X112936Y126964D01*
X112832Y126828D01*
X112767Y126670D01*
X112761Y126627D01*
X113273D01*
Y127139D01*
D02*
G37*
G36*
X113527D02*
Y126627D01*
X114039D01*
X114033Y126670D01*
X113968Y126828D01*
X113864Y126964D01*
X113728Y127068D01*
X113570Y127133D01*
X113527Y127139D01*
D02*
G37*
G36*
X147373Y128253D02*
X146559D01*
X146574Y128132D01*
X146670Y127901D01*
X146822Y127702D01*
X147021Y127550D01*
X147252Y127454D01*
X147373Y127439D01*
Y128253D01*
D02*
G37*
G36*
X119873Y130173D02*
X119294D01*
Y130020D01*
X119319Y129895D01*
X119389Y129789D01*
X119495Y129719D01*
X119620Y129694D01*
X119873D01*
Y130173D01*
D02*
G37*
G36*
X120706D02*
X120127D01*
Y129694D01*
X120380D01*
X120505Y129719D01*
X120611Y129789D01*
X120681Y129895D01*
X120706Y130020D01*
Y130173D01*
D02*
G37*
G36*
X121873D02*
X121294D01*
Y130020D01*
X121319Y129895D01*
X121389Y129789D01*
X121495Y129719D01*
X121620Y129694D01*
X121873D01*
Y130173D01*
D02*
G37*
G36*
X109800Y129273D02*
X107727D01*
Y128950D01*
X109800D01*
Y129273D01*
D02*
G37*
G36*
X110773Y130039D02*
X110730Y130033D01*
X110572Y129968D01*
X110436Y129864D01*
X110332Y129728D01*
X110267Y129570D01*
X110261Y129527D01*
X110773D01*
Y130039D01*
D02*
G37*
G36*
X111027D02*
Y129527D01*
X111539D01*
X111533Y129570D01*
X111468Y129728D01*
X111364Y129864D01*
X111228Y129968D01*
X111070Y130033D01*
X111027Y130039D01*
D02*
G37*
G36*
X137873Y137605D02*
X137180D01*
X137071Y137584D01*
X136978Y137522D01*
X136916Y137429D01*
X136895Y137320D01*
Y137127D01*
X137873D01*
Y137605D01*
D02*
G37*
G36*
X138820D02*
X138127D01*
Y137127D01*
X139105D01*
Y137320D01*
X139084Y137429D01*
X139022Y137522D01*
X138929Y137584D01*
X138820Y137605D01*
D02*
G37*
G36*
X121580Y141706D02*
X121020D01*
X120895Y141681D01*
X120789Y141611D01*
X120719Y141505D01*
X120694Y141380D01*
Y140620D01*
X120719Y140495D01*
X120789Y140389D01*
X120895Y140319D01*
X121020Y140294D01*
X121580D01*
X121705Y140319D01*
X121712Y140323D01*
X121793Y140225D01*
X121784Y140216D01*
X121717Y140117D01*
X121694Y140000D01*
X121694Y140000D01*
Y138406D01*
X121620D01*
X121495Y138381D01*
X121389Y138311D01*
X121319Y138205D01*
X121294Y138080D01*
Y137520D01*
X121319Y137395D01*
X121389Y137289D01*
X121495Y137219D01*
X121620Y137194D01*
X122380D01*
X122505Y137219D01*
X122611Y137289D01*
X122681Y137395D01*
X122706Y137520D01*
Y138080D01*
X122681Y138205D01*
X122611Y138311D01*
X122505Y138381D01*
X122380Y138406D01*
X122306D01*
Y139873D01*
X122516Y140084D01*
X122516Y140084D01*
X122583Y140183D01*
X122606Y140300D01*
X122606Y140300D01*
Y140800D01*
X122583Y140917D01*
X122516Y141016D01*
X122316Y141216D01*
X122217Y141283D01*
X122100Y141306D01*
X122100Y141306D01*
X121906D01*
Y141380D01*
X121881Y141505D01*
X121811Y141611D01*
X121705Y141681D01*
X121580Y141706D01*
D02*
G37*
G36*
X118925Y138100D02*
X117975D01*
Y136600D01*
X118925D01*
Y138100D01*
D02*
G37*
G36*
X120073Y137373D02*
X119561D01*
X119567Y137330D01*
X119632Y137172D01*
X119736Y137036D01*
X119872Y136932D01*
X120030Y136867D01*
X120073Y136861D01*
Y137373D01*
D02*
G37*
G36*
X120839D02*
X120327D01*
Y136861D01*
X120370Y136867D01*
X120528Y136932D01*
X120664Y137036D01*
X120768Y137172D01*
X120833Y137330D01*
X120839Y137373D01*
D02*
G37*
G36*
X138739Y138373D02*
X138227D01*
Y137861D01*
X138270Y137867D01*
X138428Y137932D01*
X138564Y138036D01*
X138668Y138172D01*
X138733Y138330D01*
X138739Y138373D01*
D02*
G37*
G36*
X125773Y138673D02*
X125261D01*
X125267Y138630D01*
X125332Y138472D01*
X125436Y138336D01*
X125572Y138232D01*
X125730Y138167D01*
X125773Y138161D01*
Y138673D01*
D02*
G37*
G36*
X126539D02*
X126027D01*
Y138161D01*
X126070Y138167D01*
X126228Y138232D01*
X126364Y138336D01*
X126468Y138472D01*
X126533Y138630D01*
X126539Y138673D01*
D02*
G37*
G36*
X120073Y138139D02*
X120030Y138133D01*
X119872Y138068D01*
X119736Y137964D01*
X119632Y137828D01*
X119567Y137670D01*
X119561Y137627D01*
X120073D01*
Y138139D01*
D02*
G37*
G36*
X120327D02*
Y137627D01*
X120839D01*
X120833Y137670D01*
X120768Y137828D01*
X120664Y137964D01*
X120528Y138068D01*
X120370Y138133D01*
X120327Y138139D01*
D02*
G37*
G36*
X137973Y138373D02*
X137461D01*
X137467Y138330D01*
X137532Y138172D01*
X137636Y138036D01*
X137772Y137932D01*
X137930Y137867D01*
X137973Y137861D01*
Y138373D01*
D02*
G37*
G36*
X115206Y133573D02*
X114627D01*
Y133094D01*
X114880D01*
X115005Y133119D01*
X115111Y133189D01*
X115181Y133295D01*
X115206Y133420D01*
Y133573D01*
D02*
G37*
G36*
X112773Y134339D02*
X112730Y134333D01*
X112572Y134268D01*
X112436Y134164D01*
X112332Y134028D01*
X112267Y133870D01*
X112261Y133827D01*
X112773D01*
Y134339D01*
D02*
G37*
G36*
X113027D02*
Y133827D01*
X113539D01*
X113533Y133870D01*
X113468Y134028D01*
X113364Y134164D01*
X113228Y134268D01*
X113070Y134333D01*
X113027Y134339D01*
D02*
G37*
G36*
X112773Y133573D02*
X112261D01*
X112267Y133530D01*
X112332Y133372D01*
X112436Y133236D01*
X112572Y133132D01*
X112730Y133067D01*
X112773Y133061D01*
Y133573D01*
D02*
G37*
G36*
X113539D02*
X113027D01*
Y133061D01*
X113070Y133067D01*
X113228Y133132D01*
X113364Y133236D01*
X113468Y133372D01*
X113533Y133530D01*
X113539Y133573D01*
D02*
G37*
G36*
X114373D02*
X113794D01*
Y133420D01*
X113819Y133295D01*
X113889Y133189D01*
X113995Y133119D01*
X114120Y133094D01*
X114373D01*
Y133573D01*
D02*
G37*
G36*
X112739Y136273D02*
X112227D01*
Y135761D01*
X112270Y135767D01*
X112428Y135832D01*
X112564Y135936D01*
X112668Y136072D01*
X112733Y136230D01*
X112739Y136273D01*
D02*
G37*
G36*
X111973Y137039D02*
X111930Y137033D01*
X111772Y136968D01*
X111636Y136864D01*
X111532Y136728D01*
X111467Y136570D01*
X111461Y136527D01*
X111973D01*
Y137039D01*
D02*
G37*
G36*
X112227D02*
Y136527D01*
X112739D01*
X112733Y136570D01*
X112668Y136728D01*
X112564Y136864D01*
X112428Y136968D01*
X112270Y137033D01*
X112227Y137039D01*
D02*
G37*
G36*
X114373Y134306D02*
X114120D01*
X113995Y134281D01*
X113889Y134211D01*
X113819Y134105D01*
X113794Y133980D01*
Y133827D01*
X114373D01*
Y134306D01*
D02*
G37*
G36*
X114880D02*
X114627D01*
Y133827D01*
X115206D01*
Y133980D01*
X115181Y134105D01*
X115111Y134211D01*
X115005Y134281D01*
X114880Y134306D01*
D02*
G37*
G36*
X111973Y136273D02*
X111461D01*
X111467Y136230D01*
X111532Y136072D01*
X111636Y135936D01*
X111772Y135832D01*
X111930Y135767D01*
X111973Y135761D01*
Y136273D01*
D02*
G37*
%LPD*%
D10*
X110300Y141000D02*
D03*
X108700D02*
D03*
X115300Y142000D02*
D03*
X113700D02*
D03*
X121300Y141000D02*
D03*
X119700D02*
D03*
X121800Y132000D02*
D03*
X120200D02*
D03*
X121800Y134000D02*
D03*
X120200D02*
D03*
X130800Y118000D02*
D03*
X129200D02*
D03*
X144100Y132200D02*
D03*
X142500D02*
D03*
X144100Y135000D02*
D03*
X142500D02*
D03*
D11*
X122000Y136200D02*
D03*
Y137800D02*
D03*
X120000Y130300D02*
D03*
Y128700D02*
D03*
X114500Y133700D02*
D03*
Y135300D02*
D03*
X137000Y116200D02*
D03*
Y117800D02*
D03*
X133000Y116200D02*
D03*
Y117800D02*
D03*
X135000Y116200D02*
D03*
Y117800D02*
D03*
X122000Y130300D02*
D03*
Y128700D02*
D03*
X142500Y140950D02*
D03*
Y139350D02*
D03*
X140500Y141800D02*
D03*
Y140200D02*
D03*
X133500Y141800D02*
D03*
Y140200D02*
D03*
X125000D02*
D03*
Y141800D02*
D03*
X114500Y139300D02*
D03*
Y137700D02*
D03*
X122500Y117700D02*
D03*
Y119300D02*
D03*
D12*
X116850Y130050D02*
D03*
X114150Y131950D02*
D03*
Y131000D02*
D03*
Y130050D02*
D03*
X116850Y131000D02*
D03*
Y131950D02*
D03*
X117850Y125550D02*
D03*
X115150Y127450D02*
D03*
Y126500D02*
D03*
X117850Y127450D02*
D03*
X115150Y125550D02*
D03*
X135550Y142050D02*
D03*
X138250Y140150D02*
D03*
Y141100D02*
D03*
Y142050D02*
D03*
X135550Y140150D02*
D03*
X127150Y141950D02*
D03*
X129850Y140050D02*
D03*
Y141000D02*
D03*
Y141950D02*
D03*
X127150Y140050D02*
D03*
D13*
X118450Y137350D02*
D03*
X116550Y134650D02*
D03*
X117500D02*
D03*
X118450D02*
D03*
X116550Y137350D02*
D03*
D14*
X113900Y116750D02*
D03*
Y118250D02*
D03*
X144200Y111875D02*
D03*
Y113125D02*
D03*
Y114375D02*
D03*
D15*
X120200Y117550D02*
D03*
Y119450D02*
D03*
X117800Y118400D02*
D03*
D16*
X147800Y108075D02*
D03*
Y116925D02*
D03*
D17*
X144200Y110625D02*
D03*
D18*
X138000Y126300D02*
D03*
Y125200D02*
D03*
Y124100D02*
D03*
Y123000D02*
D03*
X126000D02*
D03*
Y124100D02*
D03*
Y125200D02*
D03*
Y126300D02*
D03*
Y137000D02*
D03*
Y135900D02*
D03*
Y134800D02*
D03*
Y133700D02*
D03*
Y132600D02*
D03*
Y131500D02*
D03*
Y130400D02*
D03*
Y127400D02*
D03*
X138000D02*
D03*
Y130400D02*
D03*
Y131500D02*
D03*
Y132600D02*
D03*
Y133700D02*
D03*
Y134800D02*
D03*
Y135900D02*
D03*
Y137000D02*
D03*
D19*
X107600Y131800D02*
D03*
Y132600D02*
D03*
Y129400D02*
D03*
Y130200D02*
D03*
Y131000D02*
D03*
D20*
X108250Y126450D02*
D03*
Y135550D02*
D03*
D21*
X103500Y126450D02*
D03*
Y135550D02*
D03*
D22*
X132100Y137900D02*
Y141800D01*
X117300Y142700D02*
X131200D01*
X132100Y140200D02*
X133500D01*
X116550Y138500D02*
Y141950D01*
X117300Y142700D01*
X116550Y137350D02*
Y138400D01*
X107600Y132600D02*
X110100D01*
X116000Y136300D02*
X116550Y135750D01*
Y134650D02*
Y135750D01*
X110100Y132600D02*
X113800Y136300D01*
X114500Y135300D02*
Y136300D01*
X113800D02*
X116000D01*
X114500Y137700D02*
Y138300D01*
X114700Y138500D01*
X116550D01*
X142175Y110625D02*
X144200D01*
X140900Y111900D02*
X142175Y110625D01*
X140900Y111900D02*
Y115000D01*
X144800Y118900D01*
X126000Y123000D02*
X126100Y122900D01*
X125200Y123000D02*
X126000D01*
X129850Y141000D02*
X131100D01*
X136900Y141100D02*
X138250D01*
X112500Y131000D02*
X114150D01*
X132100Y137900D02*
X134100Y135900D01*
X131200Y142700D02*
X132100Y141800D01*
X134100Y135900D02*
X138000D01*
X133550Y140150D02*
X135550D01*
X148000Y118900D02*
X149200Y120100D01*
Y134300D01*
X138250Y140150D02*
X143350D01*
X144800Y118900D02*
X148000D01*
X143350Y140150D02*
X149200Y134300D01*
D23*
X126000Y142200D02*
Y142700D01*
X115350Y141950D02*
X116550D01*
X112200Y142000D02*
X113700D01*
X111200Y141000D02*
X112200Y142000D01*
X110300Y141000D02*
X111200D01*
X122000Y137800D02*
Y140000D01*
X121300Y141000D02*
X122100D01*
X122300Y140800D01*
Y140300D02*
Y140800D01*
X122000Y140000D02*
X122300Y140300D01*
X124500Y134800D02*
X130300D01*
X122000Y136200D02*
X123100D01*
X124500Y134800D01*
X116550Y138450D02*
X116600D01*
X118450Y134650D02*
Y135700D01*
X135700Y125200D02*
X138000D01*
X135200Y126300D02*
X138000D01*
X135900Y131500D02*
X138000D01*
X128800Y138600D02*
X135900Y131500D01*
X136400Y130400D02*
X138000D01*
X128400Y138400D02*
X136400Y130400D01*
X126000Y126300D02*
X128500D01*
X137000Y117800D02*
Y120800D01*
X136300Y121500D02*
X137000Y120800D01*
X136300Y121500D02*
Y123800D01*
X136600Y124100D01*
X138000D01*
X135000Y124500D02*
X135700Y125200D01*
X135000Y117800D02*
Y124500D01*
X133000Y117800D02*
Y124100D01*
X135200Y126300D01*
X130800Y118000D02*
Y127300D01*
X126000Y127400D02*
X134800D01*
X129200Y118000D02*
Y125600D01*
X128500Y126300D02*
X129200Y125600D01*
X124700Y130400D02*
X126000D01*
X122350Y127450D02*
X123625Y128725D01*
Y129325D01*
X124700Y130400D01*
X120000Y127450D02*
Y128700D01*
X122000Y127450D02*
Y128700D01*
X117850Y127450D02*
X122350D01*
X121800Y132000D02*
X124100D01*
X124600Y131500D01*
X126000D01*
X124700Y132600D02*
X126000D01*
X121800Y134000D02*
X123300D01*
X124700Y132600D01*
X120700Y131100D02*
X121000Y131400D01*
X116150Y125550D02*
X116250Y125650D01*
X115150Y125550D02*
X116150D01*
X107600Y131800D02*
X111000D01*
X111150Y131950D01*
X107600Y131000D02*
X111000D01*
X111950Y130050D01*
X117550Y131950D02*
X119600Y134000D01*
X120200D01*
X111150Y131950D02*
X117550D01*
X116850Y131000D02*
X117600D01*
X119600Y133000D01*
X117550Y130050D02*
X119500Y132000D01*
X111950Y130050D02*
X117550D01*
X119500Y132000D02*
X120200D01*
X116250Y127950D02*
X119400Y131100D01*
X120700D01*
X120350Y135750D02*
X121000Y135100D01*
X116550Y135750D02*
X120350D01*
X117500Y133400D02*
Y134650D01*
X115150Y127450D02*
X116250D01*
X119600Y133000D02*
X121000D01*
X114400Y136300D02*
X114500Y136200D01*
X116250Y125650D02*
Y127950D01*
X121000Y131400D02*
Y135100D01*
X100600Y124800D02*
X101500Y123900D01*
X118600D01*
X122500Y120000D01*
Y119300D02*
Y120000D01*
X113900Y118250D02*
X117650D01*
X117800Y118400D01*
X120200Y117550D02*
X122350D01*
X117800Y117100D02*
Y118400D01*
Y117100D02*
X121200Y113700D01*
X138200D01*
X144275Y113200D02*
X148000D01*
X144225Y111900D02*
X148000D01*
X100800Y137400D02*
X111000D01*
X100600Y137200D02*
X100800Y137400D01*
X111000D02*
X112100Y138500D01*
X125000Y141800D02*
Y142600D01*
X100600Y124800D02*
Y137200D01*
X112100Y138500D02*
X114700D01*
X138200Y113700D02*
X145200Y120700D01*
X147440D01*
X128400Y138400D02*
Y141700D01*
X128650Y141950D01*
X129850D01*
X128800Y138600D02*
Y140000D01*
X128850Y140050D01*
X129850D01*
X138250Y142050D02*
X139250D01*
X139400Y141900D01*
Y140200D02*
Y141900D01*
X141400Y132300D02*
X142500D01*
X140000Y133700D02*
X141400Y132300D01*
X138000Y133700D02*
X140000D01*
X138000Y132600D02*
X139300D01*
X140600Y131300D01*
X142900D01*
X143300Y131700D01*
Y134800D01*
X143100Y135000D02*
X143300Y134800D01*
X142500Y135000D02*
X143100D01*
X138000Y134800D02*
X139600D01*
X140900Y136100D01*
X144900D02*
X146200Y134800D01*
X146440Y133460D02*
X147500D01*
X144900Y135000D02*
X146440Y133460D01*
X144100Y135000D02*
X144900D01*
X145040Y132300D02*
X146420Y130920D01*
X144100Y132300D02*
X145040D01*
X146420Y130920D02*
X147500D01*
Y120760D02*
X148700Y121960D01*
X142500Y136100D02*
Y139350D01*
X148700Y121960D02*
Y133900D01*
X147800Y134800D02*
X148700Y133900D01*
X140900Y136100D02*
X144900D01*
X146200Y134800D02*
X147800D01*
X134541Y130559D02*
X136100Y129000D01*
X130300Y134800D02*
X134541Y130559D01*
X136000Y128600D02*
X142200D01*
X134800Y127400D02*
X136000Y128600D01*
X142200D02*
X147500Y123300D01*
X145560Y125840D02*
X147500D01*
X142400Y129000D02*
X145560Y125840D01*
X136100Y129000D02*
X142400D01*
X126250Y141950D02*
X127150D01*
X126000Y142200D02*
X126250Y141950D01*
D24*
X123200Y124100D02*
X126000D01*
X123100Y124200D02*
X123200Y124100D01*
D25*
X146500Y103500D02*
D03*
Y141500D02*
D03*
X103500Y103500D02*
D03*
Y141500D02*
D03*
D26*
X147500Y123300D02*
D03*
Y128380D02*
D03*
Y133460D02*
D03*
Y120760D02*
D03*
D27*
Y125840D02*
D03*
Y130920D02*
D03*
D28*
Y136000D02*
D03*
D29*
X123100Y124200D02*
D03*
D30*
Y126200D02*
D03*
X112500Y131000D02*
D03*
X123500Y130800D02*
D03*
X127900Y125200D02*
D03*
Y122900D02*
D03*
X123100Y122100D02*
D03*
X110900Y129400D02*
D03*
X112900Y133700D02*
D03*
X117500Y133300D02*
D03*
X112600Y139500D02*
D03*
X135000Y114500D02*
D03*
X141700Y114400D02*
D03*
X120600Y124300D02*
D03*
X113400Y126500D02*
D03*
X131100Y141000D02*
D03*
X125900Y138800D02*
D03*
X133500Y143500D02*
D03*
X136900Y141100D02*
D03*
X141800Y143000D02*
D03*
X148000Y113200D02*
D03*
Y111900D02*
D03*
X138100Y138500D02*
D03*
X139600Y123000D02*
D03*
X140600Y118200D02*
D03*
X116500Y116700D02*
D03*
X112100Y136400D02*
D03*
X120200Y137500D02*
D03*
X128100Y132600D02*
D03*
X132600Y126000D02*
D03*
X125800Y117300D02*
D03*
X141600Y109600D02*
D03*
X103800Y111900D02*
D03*
X137200Y101400D02*
D03*
X125900Y101300D02*
D03*
X103700Y121300D02*
D03*
X114400Y101400D02*
D03*
M02*
