%FSLAX43Y43*%
%MOMM*%
G71*
G01*
G75*
G04 Layer_Color=16711935*
G04:AMPARAMS|DCode=10|XSize=1mm|YSize=0.8mm|CornerRadius=0.12mm|HoleSize=0mm|Usage=FLASHONLY|Rotation=270.000|XOffset=0mm|YOffset=0mm|HoleType=Round|Shape=RoundedRectangle|*
%AMROUNDEDRECTD10*
21,1,1.000,0.560,0,0,270.0*
21,1,0.760,0.800,0,0,270.0*
1,1,0.240,-0.280,-0.380*
1,1,0.240,-0.280,0.380*
1,1,0.240,0.280,0.380*
1,1,0.240,0.280,-0.380*
%
%ADD10ROUNDEDRECTD10*%
G04:AMPARAMS|DCode=11|XSize=1mm|YSize=0.8mm|CornerRadius=0.12mm|HoleSize=0mm|Usage=FLASHONLY|Rotation=0.000|XOffset=0mm|YOffset=0mm|HoleType=Round|Shape=RoundedRectangle|*
%AMROUNDEDRECTD11*
21,1,1.000,0.560,0,0,0.0*
21,1,0.760,0.800,0,0,0.0*
1,1,0.240,0.380,-0.280*
1,1,0.240,-0.380,-0.280*
1,1,0.240,-0.380,0.280*
1,1,0.240,0.380,0.280*
%
%ADD11ROUNDEDRECTD11*%
%ADD12R,1.100X0.550*%
%ADD13R,0.550X1.100*%
G04:AMPARAMS|DCode=14|XSize=0.8mm|YSize=3mm|CornerRadius=0.08mm|HoleSize=0mm|Usage=FLASHONLY|Rotation=270.000|XOffset=0mm|YOffset=0mm|HoleType=Round|Shape=RoundedRectangle|*
%AMROUNDEDRECTD14*
21,1,0.800,2.840,0,0,270.0*
21,1,0.640,3.000,0,0,270.0*
1,1,0.160,-1.420,-0.320*
1,1,0.160,-1.420,0.320*
1,1,0.160,1.420,0.320*
1,1,0.160,1.420,-0.320*
%
%ADD14ROUNDEDRECTD14*%
%ADD15R,1.100X0.850*%
G04:AMPARAMS|DCode=16|XSize=2.1mm|YSize=3mm|CornerRadius=0.21mm|HoleSize=0mm|Usage=FLASHONLY|Rotation=270.000|XOffset=0mm|YOffset=0mm|HoleType=Round|Shape=RoundedRectangle|*
%AMROUNDEDRECTD16*
21,1,2.100,2.580,0,0,270.0*
21,1,1.680,3.000,0,0,270.0*
1,1,0.420,-1.290,-0.840*
1,1,0.420,-1.290,0.840*
1,1,0.420,1.290,0.840*
1,1,0.420,1.290,-0.840*
%
%ADD16ROUNDEDRECTD16*%
%ADD17R,3.000X0.800*%
G04:AMPARAMS|DCode=18|XSize=1.8mm|YSize=0.8mm|CornerRadius=0.08mm|HoleSize=0mm|Usage=FLASHONLY|Rotation=180.000|XOffset=0mm|YOffset=0mm|HoleType=Round|Shape=RoundedRectangle|*
%AMROUNDEDRECTD18*
21,1,1.800,0.640,0,0,180.0*
21,1,1.640,0.800,0,0,180.0*
1,1,0.160,-0.820,0.320*
1,1,0.160,0.820,0.320*
1,1,0.160,0.820,-0.320*
1,1,0.160,-0.820,-0.320*
%
%ADD18ROUNDEDRECTD18*%
%ADD19R,4.000X0.500*%
%ADD20R,3.500X2.700*%
%ADD21R,5.000X2.700*%
%ADD22C,0.300*%
%ADD23C,0.200*%
%ADD24C,0.500*%
%ADD25C,5.000*%
%ADD26C,1.500*%
%ADD27C,1.500*%
%ADD28R,1.500X1.500*%
%ADD29C,2.000*%
%ADD30C,0.900*%
%ADD31C,1.400*%
%ADD32C,0.254*%
%ADD33C,0.100*%
%ADD34C,0.152*%
%ADD35C,0.051*%
%ADD36C,0.150*%
%ADD37C,1.000*%
G04:AMPARAMS|DCode=38|XSize=1.203mm|YSize=1.003mm|CornerRadius=0.222mm|HoleSize=0mm|Usage=FLASHONLY|Rotation=270.000|XOffset=0mm|YOffset=0mm|HoleType=Round|Shape=RoundedRectangle|*
%AMROUNDEDRECTD38*
21,1,1.203,0.560,0,0,270.0*
21,1,0.760,1.003,0,0,270.0*
1,1,0.443,-0.280,-0.380*
1,1,0.443,-0.280,0.380*
1,1,0.443,0.280,0.380*
1,1,0.443,0.280,-0.380*
%
%ADD38ROUNDEDRECTD38*%
G04:AMPARAMS|DCode=39|XSize=1.203mm|YSize=1.003mm|CornerRadius=0.222mm|HoleSize=0mm|Usage=FLASHONLY|Rotation=0.000|XOffset=0mm|YOffset=0mm|HoleType=Round|Shape=RoundedRectangle|*
%AMROUNDEDRECTD39*
21,1,1.203,0.560,0,0,0.0*
21,1,0.760,1.003,0,0,0.0*
1,1,0.443,0.380,-0.280*
1,1,0.443,-0.380,-0.280*
1,1,0.443,-0.380,0.280*
1,1,0.443,0.380,0.280*
%
%ADD39ROUNDEDRECTD39*%
%ADD40R,1.303X0.753*%
%ADD41R,0.753X1.303*%
G04:AMPARAMS|DCode=42|XSize=1.003mm|YSize=3.203mm|CornerRadius=0.182mm|HoleSize=0mm|Usage=FLASHONLY|Rotation=270.000|XOffset=0mm|YOffset=0mm|HoleType=Round|Shape=RoundedRectangle|*
%AMROUNDEDRECTD42*
21,1,1.003,2.840,0,0,270.0*
21,1,0.640,3.203,0,0,270.0*
1,1,0.363,-1.420,-0.320*
1,1,0.363,-1.420,0.320*
1,1,0.363,1.420,0.320*
1,1,0.363,1.420,-0.320*
%
%ADD42ROUNDEDRECTD42*%
%ADD43R,1.303X1.053*%
G04:AMPARAMS|DCode=44|XSize=2.303mm|YSize=3.203mm|CornerRadius=0.312mm|HoleSize=0mm|Usage=FLASHONLY|Rotation=270.000|XOffset=0mm|YOffset=0mm|HoleType=Round|Shape=RoundedRectangle|*
%AMROUNDEDRECTD44*
21,1,2.303,2.580,0,0,270.0*
21,1,1.680,3.203,0,0,270.0*
1,1,0.623,-1.290,-0.840*
1,1,0.623,-1.290,0.840*
1,1,0.623,1.290,0.840*
1,1,0.623,1.290,-0.840*
%
%ADD44ROUNDEDRECTD44*%
%ADD45R,3.203X1.003*%
G04:AMPARAMS|DCode=46|XSize=2.003mm|YSize=1.003mm|CornerRadius=0.182mm|HoleSize=0mm|Usage=FLASHONLY|Rotation=180.000|XOffset=0mm|YOffset=0mm|HoleType=Round|Shape=RoundedRectangle|*
%AMROUNDEDRECTD46*
21,1,2.003,0.640,0,0,180.0*
21,1,1.640,1.003,0,0,180.0*
1,1,0.363,-0.820,0.320*
1,1,0.363,0.820,0.320*
1,1,0.363,0.820,-0.320*
1,1,0.363,-0.820,-0.320*
%
%ADD46ROUNDEDRECTD46*%
%ADD47R,4.203X0.703*%
%ADD48R,3.703X2.903*%
%ADD49R,5.203X2.903*%
%ADD50C,5.203*%
%ADD51C,1.703*%
%ADD52C,1.703*%
%ADD53R,1.703X1.703*%
%ADD54R,0.203X0.203*%
%ADD55C,2.203*%
%ADD56C,0.700*%
%ADD57C,1.603*%
D50*
X146500Y103500D02*
D03*
Y141500D02*
D03*
X103500Y103500D02*
D03*
Y141500D02*
D03*
D51*
X147500Y123300D02*
D03*
Y128380D02*
D03*
Y133460D02*
D03*
Y120760D02*
D03*
D52*
Y125840D02*
D03*
Y130920D02*
D03*
D53*
Y136000D02*
D03*
D54*
X105250Y128800D02*
D03*
Y133200D02*
D03*
D56*
X123100Y126200D02*
D03*
X112500Y131000D02*
D03*
X123500Y130800D02*
D03*
X127900Y125200D02*
D03*
Y122900D02*
D03*
X123100Y122100D02*
D03*
X110900Y129400D02*
D03*
X112900Y133700D02*
D03*
X117500Y133300D02*
D03*
X112600Y139500D02*
D03*
X135000Y114500D02*
D03*
X141700Y114400D02*
D03*
X120600Y124300D02*
D03*
X113400Y126500D02*
D03*
X131100Y141000D02*
D03*
X125900Y138800D02*
D03*
X133500Y143500D02*
D03*
X136900Y141100D02*
D03*
X141800Y143000D02*
D03*
X148000Y113200D02*
D03*
Y111900D02*
D03*
X138100Y138500D02*
D03*
X139600Y123000D02*
D03*
X140600Y118200D02*
D03*
X116500Y116700D02*
D03*
X112100Y136400D02*
D03*
X120200Y137500D02*
D03*
X128100Y132600D02*
D03*
X132600Y126000D02*
D03*
X125800Y117300D02*
D03*
X141600Y109600D02*
D03*
X103800Y111900D02*
D03*
X137200Y101400D02*
D03*
X125900Y101300D02*
D03*
X103700Y121300D02*
D03*
X114400Y101400D02*
D03*
D57*
X123100Y124200D02*
D03*
M02*
